<ttFont>
          <CharString index="0">
            285 714 rmoveto
            88 19 rlineto
            37 -347 -12 callgsubr
            -447 vlineto
            -83 12 -48 31 -39 vhcurveto
            -69 53 95 -38 121 hhcurveto
            116 79 35 71 46 hvcurveto
            30 47 16 64 76 vvcurveto
            431 vlineto
            89 19 rlineto
            37 -246 -37 vlineto
            88 -19 rlineto
            -374 vlineto
            -116 -13 -66 -31 -43 vhcurveto
            -41 -30 -47 -22 -61 hhcurveto
            -111 -63 79 136 hvcurveto
            return
          </CharString>
          <CharString index="1">
            rmoveto
            6 -16 3 -14 -10 vvcurveto
            -27 -25 -8 -73 -2 vhcurveto
            -37 412 37 vlineto
            -73 5 -16 10 -19 46 -286 692 rcurveline
            -149 -57 46 -103 -189 -482 -32 -81 -13 -14 -94 -16 rlinecurve
            -37 310 37 vlineto
            -83 12 -30 16 34 vvcurveto
            13 4 15 7 19 vhcurveto
            29 76 rlineto
            225 hlineto
            -108 294 rmoveto
            87 -237 rlineto
            -182 hlineto
            return
          </CharString>
          <CharString index="2">
            434 780 rmoveto
            -250 -139 -178 -217 -217 139 -178 250 251 139 178 217 217 -139 178 -251 hvcurveto
            -192 -395 rmoveto
            138 31 197 161 164 29 -197 -138 -139 -31 -198 -162 -161 -31 198 139 vhcurveto
            return
          </CharString>
          <CharString index="3">
            55 rmoveto
            357 vlineto
            26 22 25 12 34 hhcurveto
            42 32 -18 -33 14 hvcurveto
            8 -18 2 -24 -78 -53 callsubr
            89 -3 27 -12 26 vhcurveto
            51 -25 -50 29 -65 hhcurveto
            -67 -72 -29 -45 -45 hvcurveto
            74 -22 vlineto
            -204 -49 rlineto
            -23 vlineto
            76 -28 rlineto
            -385 -19 callgsubr
            return
          </CharString>
          <CharString index="4">
            321 540 rmoveto
            -183 -102 -124 -151 -151 102 -124 183 183 102 124 151 151 -102 124 -183 hvcurveto
            -117 -275 rmoveto
            92 18 131 99 99 18 -131 -92 -93 -20 -131 -97 -99 -18 131 93 vhcurveto
            return
          </CharString>
          <CharString index="5">
            407 -10 rmoveto
            198 507 199 -507 rlineto
            48 hlineto
            247 632 31 81 22 17 87 13 rlinecurve
            37 -309 -37 vlineto
            83 -10 29 -18 -34 vvcurveto
            -13 -5 -18 -6 -16 vhcurveto
            -142 -370 rlineto
            -6 hlineto
            -134 412 rlineto
            -4 11 -2 10 8 vvcurveto
            26 25 8 73 4 vhcurveto
            37 -412 -37 vlineto
            71 -5 19 -11 18 -45 34 -87 rcurveline
            -127 -331 rlineto
            -6 hlineto
            -134 412 rlineto
            -4 11 -2 10 8 vvcurveto
            24 13 9 85 5 vhcurveto
            37 -412 -37 vlineto
            71 -5 19 -11 18 -45 267 -682 rcurveline
            return
          </CharString>
          <CharString index="6">
            rmoveto
            97 111 rlineto
            23 26 10 26 20 vvcurveto
            27 -18 18 -27 -39 -24 -23 -43 -12 vhcurveto
            -41 -151 rlineto
            return
          </CharString>
          <CharString index="7">
            rmoveto
            -19 -199 rlineto
            39 hlineto
            8 29 17 39 40 84 rrcurveto
            173 hlineto
            -299 -450 rlineto
            -33 485 vlineto
            12 194 rlineto
            -39 hlineto
            -10 -36 -25 -57 -29 -54 rrcurveto
            -194 hlineto
            297 451 rlineto
            32 vlineto
            return
          </CharString>
          <CharString index="8">
            758 714 81 callgsubr
            -246 -37 vlineto
            88 -19 rlineto
            -419 vlineto
            -378 475 rlineto
            -271 -37 hlineto
            88 -19 rlineto
            -658 vlineto
            -89 -19 rlineto
            -37 246 37 vlineto
            -88 19 rlineto
            554 vlineto
            return
          </CharString>
          <CharString index="9">
            rmoveto
            -26 -19 -11 -22 -27 hvcurveto
            -102 -84 16 -22 157 41 157 -41 16 22 -104 84 rlineto
            22 -27 -19 11 -22 hhcurveto
            endchar
          </CharString>
          <CharString index="10">
            rmoveto
            -51 -229 rlineto
            41 hlineto
            10 30 22 51 39 71 12 22 rcurveline
            273 hlineto
            -418 -677 rlineto
            -38 609 vlineto
            63 262 rlineto
            -42 hlineto
            -18 -45 -32 -73 -47 -71 -12 -18 rcurveline
            -289 hlineto
            420 678 rlineto
            37 vlineto
            return
          </CharString>
          <CharString index="11">
            35 -10 -25 16 -30 hhcurveto
            -35 -29 -25 -38 -57 52 -29 66 42 31 8 18 26 hvcurveto
            26 19 21 30 18 44 231 556 rcurveline
            22 52 13 14 75 14 rrcurveto
            35 -241 -35 vlineto
            55 -3 25 -14 -27 vvcurveto
            -9 -2 -10 -7 -16 vhcurveto
            -101 -245 rlineto
            return
          </CharString>
          <CharString index="12">
            -89 -38 -35 -39 -50 vvcurveto
            -47 30 -29 36 -19 vhcurveto
            -29 55 71 -6 50 hhcurveto
            63 208 rmoveto
            92 -21 43 -15 -39 vvcurveto
            -29 -23 -19 -30 -13 vhcurveto
            -15 -36 -46 -6 -35 hhcurveto
            -41 -36 8 14 -27 hvcurveto
            -31 16 -16 22 33 vvcurveto
            36 19 36 33 23 vhcurveto
            45 -11 40 -9 49 -11 rrcurveto
            -21 290 rmoveto
            return
          </CharString>
          <CharString index="13">
            265 -10 rmoveto
            65 58 23 40 41 hvcurveto
            5 -2 rlineto
            -61 18 vlineto
            208 62 rlineto
            21 vlineto
            -79 25 rlineto
            732 -22 vlineto
            -218 36 callgsubr
            85 -28 rlineto
            -215 vlineto
            17 -38 -40 8 -38 hhcurveto
            -161 -112 -116 -168 -153 100 -113 128 hvcurveto
            -71 callgsubr
            return
          </CharString>
          <CharString index="14">
            rmoveto
            31 17 13 35 18 hvcurveto
            86 169 -31 12 -122 -116 -122 116 -31 -12 84 -169 rlineto
            -34 17 21 -14 32 hhcurveto
            endchar
          </CharString>
          <CharString index="15">
            58 9 56 43 53 vvcurveto
            62 -60 41 -91 -91 -70 -45 -68 -18 vhcurveto
            31 -10 rlineto
            35 20 43 24 39 hhcurveto
            40 23 -21 -33 -48 -54 -49 -83 -26 hvcurveto
            return
          </CharString>
          <CharString index="16">
            rmoveto
            485 -21 vlineto
            -219 -33 callgsubr
            85 -27 rlineto
            -386 vlineto
            -46 callsubr
            320 35 vlineto
            return
          </CharString>
          <CharString index="17">
            -35 26 -36 49 51 26 36 35 38 -30 34 -47 -47 -28 -34 -38 vhcurveto
            return
          </CharString>
          <CharString index="18">
            rmoveto
            -126 -85 -65 -95 -84 74 -64 99 41 31 13 21 17 hvcurveto
            -10 -71 -85 -100 -84 -40 22 -29 rcurveline
            190 55 124 131 144 vvcurveto
            114 -79 70 -129 vhcurveto
            -7 -41 rmoveto
            42 27 -46 -73 -22 -3 -22 -6 -17 hvcurveto
            -22 -12 -20 -13 -23 hhcurveto
            -42 -26 41 66 67 24 41 39 hvcurveto
            endchar
          </CharString>
          <CharString index="19">
            42 31 26 50 48 13 -24 -91 vhcurveto
            -73 vlineto
            -202 -28 -91 -58 -100 vvcurveto
            -74 50 -44 82 return
          </CharString>
          <CharString index="20">
            24 24 27 11 34 hhcurveto
            46 27 -20 -35 16 hvcurveto
            9 -20 1 -29 -71 -53 callsubr
            92 -3 25 -12 25 vhcurveto
            return
          </CharString>
          <CharString index="21">
            rmoveto
            -32 24 -35 47 48 25 35 32 36 -28 33 -45 -45 -26 -33 -36 vhcurveto
            207 hmoveto
            -32 25 -35 46 49 24 35 32 36 -28 33 -45 -45 -26 -33 -36 vhcurveto
            endchar
          </CharString>
          <CharString index="22">
            257 55 rmoveto
            315 vlineto
            2 12 4 13 17 19 rrcurveto
            20 18 22 5 11 hhcurveto
            14 15 -9 -15 18 hvcurveto
            -12 15 14 -7 18 hhcurveto
            40 24 34 36 43 -36 32 -50 -49 -50 -31 -61 -52 hvcurveto
            return
          </CharString>
          <CharString index="23">
            -146 -110 -89 -122 hvcurveto
            -271 391 13 -148 vvcurveto
            -71 -54 -43 -85 -118 -66 64 150 -43 vhcurveto
            -42 -7 rlineto
            return
          </CharString>
          <CharString index="24">
            -65 -45 -68 -37 -82 hhcurveto
            -149 -80 119 221 219 79 112 154 84 63 -33 -72 47 hvcurveto
            17 -25 14 -31 13 -35 rrcurveto
            48 hlineto
            return
          </CharString>
          <CharString index="25">
            -76 -28 -36 -38 -50 vvcurveto
            -78 71 -57 136 127 89 64 90 58 -38 43 -90 41 vhcurveto
            -51 18 rmoveto
            return
          </CharString>
          <CharString index="26">
            92 94 rmoveto
            -39 -18 21 44 56 29 23 97 19 hvcurveto
            -134 vlineto
            -19 -18 -24 -10 -27 hhcurveto
            return
          </CharString>
          <CharString index="27">
            63 27 36 47 56 vvcurveto
            48 -26 30 -42 -39 -28 -23 -30 vhcurveto
            return
          </CharString>
          <CharString index="28">
            188 -241 -21 102 vvcurveto
            36 30 24 46 57 34 -36 -70 9 vhcurveto
            39 139 hlineto
            10 -29 -52 7 -51 hhcurveto
            return
          </CharString>
          <CharString index="29">
            -78 33 -31 28 39 vvcurveto
            38 28 23 45 50 30 -27 -45 -33 -15 -30 -29 -26 vhcurveto
            -87 -83 rmoveto
            return
          </CharString>
          <CharString index="30">
            313 rmoveto
            -22 -116 -5 -19 -10 -23 rrcurveto
            6 -19 -12 2 -15 hhcurveto
            -61 -46 -43 -57 -47 32 -25 60 54 52 20 36 41 hvcurveto
            hintmask 00111101
            -40 55 49 -17 57 hhcurveto
            110 64 63 110 hvcurveto
            -50 hlineto
            hintmask 01011011
            -46 -16 -42 -21 -72 hhcurveto
            -48 -42 9 19 -34 hvcurveto
            27 53 22 60 20 76 rrcurveto
            185 61 -171 hlineto
            10 56 rlineto
            245 43 11 37 25 hhcurveto
            hintmask 10011101
            40 -13 -86 70 hhcurveto
            38 26 25 35 51 -57 38 -76 -123 -82 -98 -194 -39 hvcurveto
            -22 -109 rlineto
            -111 -61 hlineto
            53 -230 rmoveto
            -23 -12 -17 -12 -22 hhcurveto
            -20 -10 8 16 18 15 11 25 17 12 -5 -13 12 hvcurveto
            endchar
          </CharString>
          <CharString index="31">
            280 -42 vlineto
            -8 -37 -13 -39 -22 -37 rrcurveto
            -126 279 hlineto
            return
          </CharString>
          <CharString index="32">
            -51 36 -35 53 53 38 36 50 51 -39 37 -53 -52 -36 -37 -51 vhcurveto
            return
          </CharString>
          <CharString index="33">
            237 -10 rmoveto
            67 58 23 44 35 hvcurveto
            -23 33 rlineto
            -21 -18 -21 -7 -23 hhcurveto
            -24 74 callsubr
            314 22 callsubr
            -348 hlineto
            -54 8 -38 30 -22 vhcurveto
            -18 25 40 -10 40 hhcurveto
            return
          </CharString>
          <CharString index="34">
            -43 47 -1 -29 vvcurveto
            -15 -14 -24 -20 -19 vhcurveto
            endchar
          </CharString>
          <CharString index="35">
            103 -36 44 -35 -45 vvcurveto
            -44 -36 -29 -53 -61 -33 36 65 41 13 32 23 15 vhcurveto
            return
          </CharString>
          <CharString index="36">
            696 rmoveto
            hintmask 10100000
            -26 -166 rlineto
            -139 hlineto
            hintmask 10010000
            26 166 rlineto
            -68 hlineto
            hintmask 10100000
            -26 -166 rlineto
            -133 hlineto
            -12 -67 rlineto
            134 hlineto
            -22 -140 rlineto
            -136 hlineto
            hintmask 01100000
            -14 -67 rlineto
            140 hlineto
            hintmask 10100000
            -26 -164 rlineto
            68 hlineto
            hintmask 01100000
            26 164 rlineto
            139 hlineto
            hintmask 10100000
            -26 -164 rlineto
            67 hlineto
            hintmask 01100000
            26 164 rlineto
            130 hlineto
            14 67 rlineto
            -134 hlineto
            22 140 rlineto
            136 hlineto
            12 67 rlineto
            -137 hlineto
            hintmask 10010000
            26 166 rlineto
            -243 -233 rmoveto
            139 hlineto
            -22 -140 rlineto
            -139 hlineto
            endchar
          </CharString>
          <CharString index="37">
            465 770 rlineto
            -105 hlineto
            -464 -770 rlineto
            return
          </CharString>
          <CharString index="38">
            203 0 54 300 85 275 -27 callgsubr
            -275 -75 -85 75 -297 vlineto
            -86 -19 rlineto
            -38 vlineto
            360 54 rmoveto
            -73 -29 18 42 hvcurveto
            240 140 85 -140 275 1 callgsubr
          </CharString>
          <CharString index="39">
            -56 vhcurveto
            -267 vlineto
            -44 5 -26 26 -11 48 rrcurveto
            49 -11 -24 24 -36 hhcurveto
            -39 -25 -25 -39 -81 95 -66 121 hvcurveto
            -93 60 99 vlineto
            122 21 86 88 112 vvcurveto
            150 -104 49 -104 52 vhcurveto
            248 vlineto
            31 -9 21 -26 10 -41 rrcurveto
            -47 12 22 -21 37 hhcurveto
            36 23 23 36 79 -84 63 -108 5 hvcurveto
            76 -630 rmoveto
            -48 -29 -35 -47 -12 vhcurveto
            226 vlineto
            44 -32 32 -39 -60 vvcurveto
            -208 484 rmoveto
            43 28 31 44 10 vhcurveto
            -212 vlineto
            -42 31 -30 37 60 vvcurveto
            endchar
          </CharString>
          <CharString index="40">
            38 -49 -83 23 -89 hhcurveto
            -235 -166 -168 -239 -230 155 -153 234 116 136 39 52 63 hvcurveto
            return
          </CharString>
          <CharString index="41">
            57 323 54 113 -20 23 -20 183 57 return
          </CharString>
          <CharString index="42">
            -20 hstemhm
            45 189 hintmask 10100100
            -42 callsubr
            hintmask 01100100
            -43 callsubr
            hintmask 10100100
            -83 callsubr
            hintmask 10001100
            245 -30 -14 callsubr
            hintmask 10100100
            -38 callgsubr
            hvcurveto
            return
          </CharString>
          <CharString index="43">
            36 -13 -19 26 -41 hhcurveto
            -40 -32 -26 -50 -65 61 -42 108 94 95 45 84 53 hvcurveto
            29 53 5 37 196 vvcurveto
            return
          </CharString>
          <CharString index="44">
            rmoveto
            -35 25 -33 46 48 25 33 35 35 -28 33 -45 -45 -26 -33 -35 vhcurveto
            endchar
          </CharString>
          <CharString index="45">
            -48 callsubr
            300 35 vlineto
            return
          </CharString>
          <CharString index="46">
            127 172 return
          </CharString>
          <CharString index="47">
            84 20 rlineto
            37 -341 -37 vlineto
            85 -20 rlineto
            -756 vlineto
            -108 -32 -52 -40 -24 -17 19 45 -15 vhcurveto
            return
          </CharString>
          <CharString index="48">
            rmoveto
            -111 12 73 -38 62 hhcurveto
            46 77 16 133 34 hvcurveto
            -49 hlineto
            return
          </CharString>
          <CharString index="49">
            -10 rmoveto
            22 hlineto
            203 49 rlineto
            23 vlineto
            -76 28 rlineto
            440 -155 -420 vlineto
            -19 -21 -27 -10 -31 hhcurveto
            -37 -24 14 28 -12 hvcurveto
            -9 19 -3 27 65 vvcurveto
            296 -155 -403 vlineto
            hintmask 11101010
            -91 -15 -123 -56 vvcurveto
            -76 27 -41 50 47 33 36 52 vhcurveto
            hintmask 11110010
            77 -41 44 121 vvcurveto
            3 2 rlineto
            -55 17 34 -27 53 hhcurveto
            47 38 22 44 28 hvcurveto
            4 -1 rlineto
            endchar
          </CharString>
          <CharString index="50">
            rmoveto
            190 hlineto
            37 118 -33 12 -25 -34 rlineto
            -209 hlineto
            -48 -287 rlineto
            39 hlineto
            12 21 return
          </CharString>
          <CharString index="51">
            rmoveto
            -102 12 73 -34 62 hhcurveto
            46 77 14 122 34 hvcurveto
            -49 hlineto
            return
          </CharString>
          <CharString index="52">
            -10 rmoveto
            158 108 100 146 136 -93 100 -128 -55 -45 -19 -33 -24 hvcurveto
            14 108 112 149 111 60 -23 40 rcurveline
            -240 -84 -157 -200 -221 vvcurveto
            -175 99 -107 163 vhcurveto
            8 60 rmoveto
            -62 -39 72 115 38 4 38 8 30 hvcurveto
            34 17 31 20 34 hhcurveto
            62 39 -69 -109 -104 -36 -65 -58 hvcurveto
            endchar
          </CharString>
          <CharString index="53">
            -72 94 7 -47 vvcurveto
            -27 -32 -42 -44 -32 vhcurveto
            return
          </CharString>
          <CharString index="54">
            vvcurveto
            -224 vlineto
            -70 -62 callsubr
            -75 42 callgsubr
            return
          </CharString>
          <CharString index="55">
            -50 callgsubr
            hintmask 11100111
            50 19 -39 56 hhcurveto
            68 34 56 -69 callgsubr
            hintmask 11001011
            -50 callsubr
            -51 -94 hvcurveto
            endchar
          </CharString>
          <CharString index="56">
            rmoveto
            40 30 30 40 40 -30 30 -40 -40 -30 -30 -40 -40 28 -30 42 hvcurveto
            -20 70 rmoveto
            12 8 8 12 12 8 -8 -12 -12 -8 -8 -12 -12 -8 8 12 vhcurveto
            endchar
          </CharString>
          <CharString index="57">
            -46 -23 36 -52 hhcurveto
            -62 -45 return
          </CharString>
          <CharString index="58">
            -148 -21 324 151 0 165 hstemhm
            63 69 callgsubr
            hintmask 10110000
            63 388 rmoveto
            -41 29 -41 56 59 30 41 41 44 -34 39 -55 -54 -31 -23 callsubr
            42 -557 rmoveto
            83 44 49 76 86 vvcurveto
            hintmask 11010000
            73 -34 45 -55 -49 -36 -33 -45 vhcurveto
            hintmask 11001000
            -54 callsubr
            endchar
          </CharString>
          <CharString index="59">
            -20 rlineto
            -35 return
          </CharString>
          <CharString index="60">
            vvcurveto
            -54 40 -34 62 51 41 17 37 38 vhcurveto
            return
          </CharString>
          <CharString index="61">
            -85 -48 callsubr
            return
          </CharString>
          <CharString index="62">
            121 -97 111 153 108 -92 119 return
          </CharString>
          <CharString index="63">
            14 -9 rlineto
            5 13 20 3 13 hhcurveto
            54 callgsubr
            endchar
          </CharString>
          <CharString index="64">
            41 -66 rlineto
            37 277 -45 hlineto
            -9 -49 -18 -42 -23 -34 rrcurveto
            return
          </CharString>
          <CharString index="65">
            45 380 rmoveto
            -232 159 -158 232 88 73 23 53 78 vhcurveto
            return
          </CharString>
          <CharString index="66">
            -71 -10 103 197 51 148 51 return
          </CharString>
          <CharString index="67">
            757 rmoveto
            -4 9 -2 18 11 vvcurveto
            -37 8 -88 -248 38 -17 20 39 17 23 20 20 rlinecurve
            279 hlineto
            -243 -456 rlineto
            -26 -49 -14 -37 -27 vvcurveto
            -38 28 -23 45 37 26 23 45 16 vhcurveto
            119 344 15 38 131 289 -16 28 rcurveline
            endchar
          </CharString>
          <CharString index="68">
            -56 -12 73 48 52 14 85 59 56 11 -77 -48 -58 -16 -75 -56 hvcurveto
            return
          </CharString>
          <CharString index="69">
            780 rmoveto
            -152 -119 -175 -224 -222 118 -169 153 154 119 170 221 223 -121 176 -152 hvcurveto
            -60 vmoveto
            65 25 -70 -268 -269 -25 -63 -65 -64 -24 62 270 268 24 70 64 hvcurveto
            endchar
          </CharString>
          <CharString index="70">
            -72 callsubr
            endchar
          </CharString>
          <CharString index="71">
            36 -18 -17 12 -31 hhcurveto
            -41 -26 -24 -38 -61 71 -41 106 98 64 35 79 46 hvcurveto
            32 55 10 51 109 vvcurveto
            481 -21 vlineto
            -219 -20 rlineto
            -140 34 hlineto
            92 2 30 10 24 vhcurveto
            42 16 44 24 63 hhcurveto
            48 12 -10 -60 23 hvcurveto
            return
          </CharString>
          <CharString index="72">
            -375 -10 165 151 165 hstem
            63 174 vstem
            63 388 rmoveto
            -41 29 -41 56 59 30 41 41 44 -34 39 -55 -54 -31 -23 callsubr
            -316 vmoveto
            -41 29 -41 56 59 30 41 41 44 -34 39 -55 -54 -31 -23 callsubr
            endchar
          </CharString>
          <CharString index="73">
            rmoveto
            67 173 171 65 -171 172 -67 -172 -172 -65 172 hlineto
            return
          </CharString>
          <CharString index="74">
            -33 46 60 -19 73 hhcurveto
            -112 198 rmoveto
            -4 26 -1 27 24 vvcurveto
            92 18 131 99 52 29 -36 -48 17 vhcurveto
            -98 -363 rmoveto
            -52 -30 36 48 -16 hvcurveto
            210 215 rlineto
            3 -26 2 -26 -23 vvcurveto
            -93 -20 -131 -97 vhcurveto
            return
          </CharString>
          <CharString index="75">
            -21 -18 -21 -7 -21 hhcurveto
            -26 74 callsubr
            317 69 callsubr
            47 rlineto
            -155 129 hlineto
            -31 5 -175 -134 rlineto
            -174 55 hlineto
            71 1 46 11 30 vhcurveto
            36 13 25 11 28 hhcurveto
            return
          </CharString>
          <CharString index="76">
            -30 callsubr
            vhcurveto
            return
          </CharString>
          <CharString index="77">
            -94 callgsubr
            -10 256 rmoveto
            -41 30 -41 56 59 30 41 41 return
          </CharString>
          <CharString index="78">
            rmoveto
            -93 -16 rlineto
            -26 299 26 vlineto
            -69 16 rlineto
            return
          </CharString>
          <CharString index="79">
            174 -10 rmoveto
            72 59 30 72 72 hvcurveto
            4 hlineto
            -66 48 79 -36 95 hhcurveto
            114 92 53 88 37 hvcurveto
            5 12 -28 24 -7 -8 rlineto
            -41 -36 -62 -25 -65 hhcurveto
            -104 -52 65 132 -1 hvcurveto
            364 hlineto
            8 6 rlineto
            return
          </CharString>
          <CharString index="80">
            60 rmoveto
            -120 -23 rlineto
            -37 364 37 vlineto
            -89 23 rlineto
            132 93 98 -93 480 vlineto
            -80 10 -373 -530 18 -58 rlineto
            280 hlineto
            98 vmoveto
            -190 hlineto
            -1 4 187 262 87 callsubr
          </CharString>
          <CharString index="81">
            42 223 51 198 -20 hstem
            32 146 132 141 vstem
            240 return
          </CharString>
          <CharString index="82">
            107 -106 -20 58 68 -68 104 2 -20 hstemhm
            return
          </CharString>
          <CharString index="83">
            155 225 155 return
          </CharString>
          <CharString index="84">
            -39 -44 vhcurveto
            return
          </CharString>
          <CharString index="85">
            -10 -64 rlineto
            84 hlineto
            -179 26 103 -121 144 hhcurveto
            108 89 68 87 41 -20 21 -35 -52 -12 -45 -23 -6 hvcurveto
            hintmask 10111000
            -42 -11 -16 -48 -50 hhcurveto
            -55 -28 58 183 -7 hvcurveto
            endchar
          </CharString>
          <CharString index="86">
            34 -52 27 -58 16 -53 78 callgsubr
            -632 -27 hlineto
            62 -18 -304 -577 -40 -76 -27 -20 -102 -15 rlinecurve
            343 305 rmoveto
            169 325 rlineto
            4 -325 hlineto
            return
          </CharString>
          <CharString index="87">
            58 -28 -21 550 -20 191 59 return
          </CharString>
          <CharString index="88">
            -10 221 rlineto
            -33 hlineto
            -24 -53 rlineto
            return
          </CharString>
          <CharString index="89">
            587 rmoveto
            68 53 53 68 67 -54 55 -67 -68 -53 -54 -68 -68 53 -53 68 hvcurveto
            -65 121 rmoveto
            39 28 28 37 39 26 -28 -39 -37 -26 -28 -39 -37 -28 28 37 vhcurveto
            endchar
          </CharString>
          <CharString index="90">
            45 -45 141 106 57 148 64 hstemhm
            243 134 -110 146 hintmask 10110100
            121 return
          </CharString>
          <CharString index="91">
            194 -10 58 672 60 return
          </CharString>
          <CharString index="92">
            146 -10 62 callsubr
            return
          </CharString>
          <CharString index="93">
            vlineto
            -44 -51 rlineto
            -4 hlineto
            return
          </CharString>
          <CharString index="94">
            42 433 41 hstem
            34 160 109 160 vstem
            248 return
          </CharString>
          <CharString index="95">
            hmoveto
            -70 callsubr
            671 16 callgsubr
            return
          </CharString>
          <CharString index="96">
            rmoveto
            -56 178 54 177 -30 13 -147 -181 rlineto
            -19 vlineto
            149 -183 rlineto
            return
          </CharString>
          <CharString index="97">
            -108 rmoveto
            823 69 -823 75 821 vlineto
            78 17 rlineto
            40 -327 vlineto
            -144 -88 -85 -131 -116 80 -98 127 hvcurveto
            56 -448 hlineto
            endchar
          </CharString>
          <CharString index="98">
            -21 23 91 353 65 hstem
            277 148 vstem
            320 return
          </CharString>
          <CharString index="99">
            106 0 37 185 57 return
          </CharString>
          <CharString index="100">
            492 -620 rlineto
            69 hlineto
            return
          </CharString>
          <CharString index="101">
            10 -64 0 callsubr
            return
          </CharString>
          <CharString index="102">
            hstemhm
            87 callgsubr
            226 -24 callsubr
            return
          </CharString>
          <CharString index="103">
            780 rmoveto
            -73 -68 -69 -38 -90 -16 rrcurveto
            -43 123 -553 vlineto
            -123 -26 rlineto
            -36 404 36 vlineto
            -126 26 rlineto
            710 vlineto
            endchar
          </CharString>
          <CharString index="104">
            -45 -260 60 -60 149 606 35 return
          </CharString>
          <CharString index="105">
            26 5 -26 34 hhcurveto
            36 20 29 29 hvcurveto
            return
          </CharString>
          <CharString index="106">
            -72 callgsubr
            163 rlineto
            4 hlineto
            return
          </CharString>
          <CharString index="107">
            hhcurveto
            -131 -107 -34 callgsubr
            return
          </CharString>
          <CharString index="108">
            25 hlineto
            61 38 -11 -25 25 hvcurveto
            25 -25 13 -43 -61 vvcurveto
            -65 -14 -42 -31 -29 vhcurveto
            -28 -30 -43 -13 -62 hhcurveto
            -7 hlineto
            endchar
          </CharString>
          <CharString index="109">
            45 -62 -81 28 -97 hhcurveto
            -250 -139 -178 -217 -112 37 -102 70 -72 hvcurveto
            -85 -99 rlineto
            77 hlineto
            52 61 rlineto
            return
          </CharString>
          <CharString index="110">
            rmoveto
            -83 -44 -49 -76 -86 vvcurveto
            -73 34 -45 55 49 36 33 45 vhcurveto
            return
          </CharString>
          <CharString index="111">
            116 rmoveto
            85 vlineto
            -317 136 rlineto
            4 vlineto
            317 134 rlineto
            81 vlineto
            -409 -195 rlineto
            -51 vlineto
            endchar
          </CharString>
          <CharString index="112">
            0 55 486 -20 194 55 return
          </CharString>
          <CharString index="113">
            27 callgsubr
            138 return
          </CharString>
          <CharString index="114">
            -44 -41 13 32 -16 hvcurveto
            endchar
          </CharString>
          <CharString index="115">
            433 -10 rmoveto
            251 139 178 217 111 -37 100 -69 72 hvcurveto
            88 102 rlineto
            -78 hlineto
            -54 -63 rlineto
            return
          </CharString>
          <CharString index="116">
            -49 18 32 -25 43 hhcurveto
            45 31 31 44 73 -93 49 -138 return
          </CharString>
          <CharString index="117">
            203 11 33 callsubr
            return
          </CharString>
          <CharString index="118">
            138 -10 60 -29 -21 721 59 return
          </CharString>
          <CharString index="119">
            110 -71 34 callsubr
            return
          </CharString>
          <CharString index="120">
            -315 31 callgsubr
            return
          </CharString>
          <CharString index="121">
            -11 -10 52 callgsubr
            return
          </CharString>
          <CharString index="122">
            -46 callsubr
            363 35 vlineto
            -123 20 rlineto
            428 225 -351 vlineto
            -54 8 -38 30 -22 vhcurveto
            return
          </CharString>
          <CharString index="123">
            326 -10 rmoveto
            183 102 124 151 71 -23 65 -43 49 hvcurveto
            78 80 rlineto
            -76 hlineto
            -42 -43 rlineto
            return
          </CharString>
          <CharString index="124">
            vlineto
            61 -89 41 -130 -149 -110 -54 -93 -40 vhcurveto
            return
          </CharString>
          <CharString index="125">
            rmoveto
            65 -410 -65 vlineto
            endchar
          </CharString>
          <CharString index="126">
            -8 12 -2 15 49 vvcurveto
            return
          </CharString>
          <CharString index="127">
            rmoveto
            58 31 -37 -69 -17 -2 -15 -2 -6 hvcurveto
            -204 -8 rlineto
            98 9 41 54 69 hhcurveto
            endchar
          </CharString>
          <CharString index="128">
            hstemhm
            22 callgsubr
            return
          </CharString>
          <CharString index="129">
            59 callsubr
            129 hlineto
            -31 5 -201 -153 6 -31 rlineto
            71 return
          </CharString>
          <CharString index="130">
            -104 -10 103 247 200 -52 52 return
          </CharString>
          <CharString index="131">
            -14 callgsubr
            117 -21 return
          </CharString>
          <CharString index="132">
            -32 -22 -40 -13 -42 hhcurveto
            return
          </CharString>
          <CharString index="133">
            -23 -22 -40 -9 -42 hhcurveto
            return
          </CharString>
          <CharString index="134">
            392 rmoveto
            63 -410 -63 vlineto
            410 -161 rmoveto
            63 -410 -63 vlineto
            endchar
          </CharString>
          <CharString index="135">
            72 418 50 134 -20 hstemhm
            94 155 return
          </CharString>
          <CharString index="136">
            537 11 -21 743 37 return
          </CharString>
          <CharString index="137">
            303 11 -21 505 35 return
          </CharString>
          <CharString index="138">
            101 vlineto
            84 20 rlineto
            hintmask 11011100
            37 -341 -37 vlineto
            85 -20 rlineto
            hintmask 11101100
            -101 return
          </CharString>
          <CharString index="139">
            -20 82 callsubr
            492 69 return
          </CharString>
          <CharString index="140">
            -21 31 35 callgsubr
            return
          </CharString>
          <CharString index="141">
            71 -71 107 2 -20 hstemhm
            return
          </CharString>
          <CharString index="142">
            -21 540 -20 return
          </CharString>
          <CharString index="143">
            -10 59 -59 217 83 64 57 64 97 208 -60 60 hstemhm
            hintmask 10110100
            return
          </CharString>
          <CharString index="144">
            60 vlineto
            197 113 81 141 140 -114 88 -180 hvcurveto
            return
          </CharString>
          <CharString index="145">
            220 rlineto
            -612 -37 hlineto
            85 -19 rlineto
            -658 vlineto
            -85 -19 rlineto
            -37 return
          </CharString>
          <CharString index="146">
            -169 rmoveto
            201 988 rlineto
            -100 hlineto
            -200 -988 rlineto
            endchar
          </CharString>
          <CharString index="147">
            -181 21 -21 396 145 -1 -20 return
          </CharString>
          <CharString index="148">
            -37 341 37 vlineto
            return
          </CharString>
          <CharString index="149">
            rmoveto
            -125 94 rlineto
            return
          </CharString>
          <CharString index="150">
            189 -66 66 320 -20 hstemhm
            225 137 hintmask 10110000
            225 return
          </CharString>
          <CharString index="151">
            -65 -52 -38 -58 -52 vvcurveto
            -52 39 -34 66 47 42 17 37 38 vhcurveto
            return
          </CharString>
          <CharString index="152">
            140 -111 129 209 125 -101 136 hintmask 11011000
            return
          </CharString>
          <CharString index="153">
            -134 vlineto
            -90 -237 rlineto
            -4 hlineto
            -77 237 rlineto
            -144 return
          </CharString>
          <CharString index="154">
            69 32 39 52 64 vvcurveto
            55 -29 34 -45 -40 -29 -26 -34 vhcurveto
            return
          </CharString>
          <CharString index="155">
            -62 callgsubr
            -249 return
          </CharString>
          <CharString index="156">
            102 -428 hlineto
            -85 -20 rlineto
            return
          </CharString>
          <CharString index="157">
            526 -21 325 -20 hstemhm
            return
          </CharString>
          <CharString index="158">
            9 21 -21 450 90 return
          </CharString>
          <CharString index="159">
            92 231 -67 67 140 67 -67 233 hstemhm
            hintmask 10010000
            return
          </CharString>
          <CharString index="160">
            -39 23 -58 -65 vvcurveto
            -12 vlineto
            -17 3 -28 9 -18 7 rrcurveto
            return
          </CharString>
          <CharString index="161">
            -70 callsubr
            endchar
          </CharString>
          <CharString index="162">
            111 174 return
          </CharString>
          <CharString index="163">
            vlineto
            -87 -26 rlineto
            -24 376 24 vlineto
            -134 26 rlineto
            return
          </CharString>
          <CharString index="164">
            vlineto
            -85 -22 rlineto
            -37 382 37 vlineto
            -125 22 rlineto
            return
          </CharString>
          <CharString index="165">
            -20 33 -20 hstemhm
            139 135 return
          </CharString>
          <CharString index="166">
            69 callsubr
            50 rlineto
            -155 return
          </CharString>
          <CharString index="167">
            hstemhm
            45 192 340 172 return
          </CharString>
          <CharString index="168">
            -20 hstemhm
            102 155 return
          </CharString>
          <CharString index="169">
            62 718 -20 return
          </CharString>
          <CharString index="170">
            -21 509 -20 hstem
            119 135 vstem
            211 return
          </CharString>
          <CharString index="171">
            -160 rmoveto
            -15 -22 -15 -6 -19 hhcurveto
            -33 -15 19 return
          </CharString>
          <CharString index="172">
            -49 -47 callsubr
            return
          </CharString>
          <CharString index="173">
            59 1 44 11 28 vhcurveto
            47 17 44 19 45 hhcurveto
            return
          </CharString>
          <CharString index="174">
            47 18 43 19 45 hhcurveto
            return
          </CharString>
          <CharString index="175">
            -104 0 47 436 47 return
          </CharString>
          <CharString index="176">
            140 vlineto
            15 return
          </CharString>
          <CharString index="177">
            135 -88 88 return
          </CharString>
          <CharString index="178">
            41 17 43 25 55 hhcurveto
            62 36 -33 -67 hvcurveto
            return
          </CharString>
          <CharString index="179">
            122 12 callsubr
            return
          </CharString>
          <CharString index="180">
            -349 651 -21 229 -20 hstem
            164 return
          </CharString>
          <CharString index="181">
            -18 10 18 -11 hvcurveto
            19 callsubr
            return
          </CharString>
          <CharString index="182">
            0 44 -33 -21 472 78 -57 57 -10 -20 return
          </CharString>
          <CharString index="183">
            -159 rmoveto
            978 -100 -978 vlineto
            endchar
          </CharString>
          <CharString index="184">
            -148 -21 988 -20 hstem
            return
          </CharString>
          <CharString index="185">
            37 171 218 155 return
          </CharString>
          <CharString index="186">
            29 vlineto
            86 36 rlineto
            6 hlineto
            return
          </CharString>
          <CharString index="187">
            72 424 54 290 -20 return
          </CharString>
          <CharString index="188">
            152 66 152 return
          </CharString>
          <CharString index="189">
            hstemhm
            128 69 return
          </CharString>
          <CharString index="190">
            64 23 60 38 vvcurveto
            34 -19 21 -32 vhcurveto
            return
          </CharString>
          <CharString index="191">
            -22 -37 rrcurveto
            -126 279 255 hlineto
            return
          </CharString>
          <CharString index="192">
            -157 50 -50 184 753 49 hstemhm
            return
          </CharString>
          <CharString index="193">
            hstemhm
            36 168 return
          </CharString>
          <CharString index="194">
            rlineto
            4 hlineto
            endchar
          </CharString>
        <CharString name=".notdef">
          -50 -260 82 1065 83 hstem
          50 90 345 90 vstem
          50 -260 rmoveto
          525 1230 -525 hlineto
          124 -1148 rmoveto
          311 957 rlineto
          -957 vlineto
          -345 1065 rmoveto
          310 hlineto
          -310 -957 rlineto
          endchar
        </CharString>
        <CharString name="A">
          -8 callsubr
          511 -20 hstem
          482 114 -106 callsubr
          63 callgsubr
          endchar
        </CharString>
        <CharString name="AE">
          38 callgsubr
          hstemhm
          489 172 hintmask 11110110
          -52 callgsubr
          hintmask 11101110
          -21 callsubr
          endchar
        </CharString>
        <CharString name="AEacute">
          38 callgsubr
          -57 250 hstemhm
          hintmask 11110100
          -52 callgsubr
          hintmask 11101100
          -21 callsubr
          70 475 -74 callgsubr
          hintmask 11110010
          -87 callgsubr
        </CharString>
        <CharString name="Aacute">
          -8 callsubr
          684 -20 hstem
          482 114 -106 callsubr
          63 callgsubr
          -81 301 -74 callgsubr
          -87 callgsubr
        </CharString>
        <CharString name="Abreve">
          -8 callsubr
          550 104 -104 136 hstemhm
          hintmask 11010000
          482 114 -106 callsubr
          63 callgsubr
          -129 449 -56 callsubr
          hintmask 11100000
          26 callsubr
          hintmask 11010000
          8 callgsubr
        </CharString>
        <CharString name="Acircumflex">
          -8 callsubr
          681 -20 hstem
          482 114 -106 callsubr
          63 callgsubr
          22 444 -98 callsubr
        </CharString>
        <CharString name="Adieresis">
          -8 callsubr
          550 136 hstemhm
          177 216 -207 82 callgsubr
          hintmask 11110000
          482 114 -106 callsubr
          hintmask 11101100
          63 callgsubr
          -144 380 -86 callsubr
        </CharString>
        <CharString name="Agrave">
          -8 callsubr
          684 -20 hstem
          482 114 -106 callsubr
          63 callgsubr
          132 329 42 callsubr
          -73 callgsubr
        </CharString>
        <CharString name="Amacron">
          -8 callsubr
          585 96 hstem
          482 114 -106 callsubr
          63 callgsubr
          182 348 -36 callgsubr
        </CharString>
        <CharString name="Aogonek">
          106 -256 75 181 37 185 57 511 -20 hstem
          508 113 vstem
          725 -51 callgsubr
          36 20 41 43 47 hvcurveto
          121 37 hlineto
          -73 5 -16 10 -19 46 -286 692 rcurveline
          -149 -57 46 -103 -189 -482 -32 -81 -13 -14 -94 -16 rlinecurve
          -37 310 37 vlineto
          -83 12 -30 16 34 vvcurveto
          13 4 15 7 19 vhcurveto
          29 76 rlineto
          225 hlineto
          40 -108 rlineto
          6 -16 3 -14 -10 vvcurveto
          -27 -25 -8 -73 -2 vhcurveto
          -37 229 vlineto
          -71 -54 -43 -62 64 callgsubr
          -406 718 rmoveto
          87 -237 rlineto
          -182 hlineto
          63 callgsubr
          endchar
        </CharString>
        <CharString name="Aring">
          -8 callsubr
          551 140 hstem
          482 114 -106 callsubr
          63 callgsubr
          9 314 -51 callsubr
        </CharString>
        <CharString name="Aringacute">
          -8 callsubr
          551 139 1 -20 hstemhm
          hintmask 11100000
          239 825 rmoveto
          57 17 rlineto
          -8 11 15 -4 16 hhcurveto
          34 26 21 31 8 hvcurveto
          45 13 9 19 20 vvcurveto
          24 -24 11 -20 -14 -11 -4 -7 -12 vhcurveto
          hintmask 11010000
          8 -12 -14 4 -15 hhcurveto
          -40 -30 -30 -40 -8 1 -7 2 -7 hvcurveto
          -43 -32 rlineto
          110 34 rmoveto
          -12 -8 8 12 12 8 8 12 12 8 -8 -12 -12 -8 -8 -12 hvcurveto
          144 -766 -106 callsubr
          63 callgsubr
          endchar
        </CharString>
        <CharString name="Atilde">
          -8 callsubr
          541 -25 callsubr
          hintmask 11011010
          482 114 -106 callsubr
          63 callgsubr
          -92 305 -50 callgsubr
          hintmask 11100010
          50 19 -39 56 hhcurveto
          68 34 53 -69 callgsubr
          hintmask 11010100
          -50 callsubr
          -48 -94 hvcurveto
          endchar
        </CharString>
        <CharString name="B">
          76 0 53 663 54 -46 callgsubr
          189 183 -150 150 -150 188 hintmask 11100100
          42 770 rmoveto
          -37 vlineto
          13 callgsubr
          -37 355 vlineto
          120 67 15 37 51 hvcurveto
          46 35 28 56 61 vvcurveto
          117 -89 84 -135 13 vhcurveto
          4 vlineto
          hintmask 11110000
          119 21 67 59 81 vvcurveto
          59 -30 54 -52 33 vhcurveto
          28 -45 -64 13 -101 hhcurveto
          -80 -54 rmoveto
          18 hlineto
          57 43 -11 -23 29 hvcurveto
          27 -22 15 -34 -47 vvcurveto
          -82 -45 -49 -80 -8 vhcurveto
          -2 -13 -16 -1 -24 hhcurveto
          -11 hlineto
          37 -54 rmoveto
          hintmask 11101000
          126 59 -53 -117 -110 -46 -50 -99 -59 -18 13 47 hvcurveto
          270 vlineto
          endchar
        </CharString>
        <CharString name="C">
          11 callsubr
          -10 -20 hstemhm
          45 189 hintmask 10101000
          -42 callsubr
          hintmask 01101000
          -43 callsubr
          hintmask 10101000
          -83 callsubr
          hintmask 10011000
          245 -30 -14 callsubr
          hintmask 10101000
          -38 callgsubr
          hvcurveto
          endchar
        </CharString>
        <CharString name="CR">
          -370 endchar
        </CharString>
        <CharString name="Cacute">
          11 callsubr
          -59 242 -193 -65 callsubr
          294 437 -74 callgsubr
          hintmask 10010100
          -87 callgsubr
        </CharString>
        <CharString name="Ccaron">
          11 callsubr
          -10 -20 30 51 139 -20 hstemhm
          45 189 hintmask 10100110
          -42 callsubr
          hintmask 01100110
          -43 callsubr
          hintmask 10100110
          -83 callsubr
          hintmask 10011110
          245 -30 -14 callsubr
          -38 callgsubr
          hvcurveto
          413 451 -95 callgsubr
        </CharString>
        <CharString name="Ccedilla">
          138 61 callgsubr
          49 59 -29 -21 721 59 -10 -20 hstemhm
          45 189 219 105 hintmask 11101011
          328 -42 callgsubr
          18 49 77 4 66 23 71 48 rlinecurve
          hintmask 11011011
          -43 callsubr
          hintmask 11101011
          -83 callsubr
          hintmask 11100111
          245 -30 -14 callsubr
          hintmask 11101011
          -38 callgsubr
          -222 145 -153 214 -14 hvcurveto
          -49 -125 -44 callsubr
        </CharString>
        <CharString name="Ccircumflex">
          11 callsubr
          -59 239 -190 -65 callsubr
          hintmask 10010100
          401 580 -98 callsubr
        </CharString>
        <CharString name="Cdotaccent">
          11 callsubr
          -10 -20 80 136 hstemhm
          45 189 143 144 hintmask 10101110
          -42 callsubr
          hintmask 01101110
          -43 callsubr
          hintmask 10101110
          -83 callsubr
          hintmask 10011110
          245 -30 -14 callsubr
          hintmask 10101110
          -38 callgsubr
          hvcurveto
          332 518 -63 callsubr
        </CharString>
        <CharString name="D">
          203 0 54 660 56 hstem
          127 172 341 192 vstem
          -102 callgsubr
          endchar
        </CharString>
        <CharString name="Dcaron">
          203 0 54 660 56 0 51 59 callgsubr
          341 192 hintmask 11011100
          -102 callgsubr
          hintmask 10111100
          23 767 -95 callgsubr
        </CharString>
        <CharString name="Dcroat">
          -69 callsubr
        </CharString>
        <CharString name="Ddotbelow">
          203 -13 callgsubr
          95 54 660 56 hstem
          -61 callsubr
          29 175 137 192 vstem
          -102 callgsubr
          -73 -232 -103 callgsubr
          endchar
        </CharString>
        <CharString name="E">
          56 0 39 callgsubr
          hintmask 11011100
          -104 callgsubr
          hintmask 11101100
          -76 callsubr
          endchar
        </CharString>
        <CharString name="Eacute">
          56 0 -66 callsubr
          -57 250 -46 callgsubr
          hintmask 11011010
          -104 callgsubr
          hintmask 11101010
          -76 callsubr
          -15 104 -74 callgsubr
          hintmask 11010110
          -87 callgsubr
        </CharString>
        <CharString name="Ebreve">
          56 0 -66 callsubr
          59 104 -104 136 -46 callgsubr
          hintmask 11011101
          -104 callgsubr
          hintmask 11101011
          -76 callsubr
          -74 252 -56 callsubr
          hintmask 11011101
          26 callsubr
          hintmask 11011011
          8 callgsubr
        </CharString>
        <CharString name="Ecaron">
          56 0 -66 callsubr
          0 51 59 callgsubr
          hintmask 11011011
          -104 callgsubr
          hintmask 11101011
          -76 callsubr
          hintmask 11010111
          83 108 -95 callgsubr
        </CharString>
        <CharString name="Ecircumflex">
          56 0 -66 callsubr
          -57 247 -46 callgsubr
          hintmask 11011010
          -104 callgsubr
          hintmask 11101010
          -76 callsubr
          hintmask 11010110
          81 247 -98 callsubr
        </CharString>
        <CharString name="Edieresis">
          56 0 -66 callsubr
          60 136 -46 callgsubr
          -104 82 callgsubr
          hintmask 1101111010000000
          -104 callgsubr
          hintmask 1110111010000000
          -76 callsubr
          hintmask 1101110110000000
          -104 184 -86 callsubr
        </CharString>
        <CharString name="Edotaccent">
          56 0 -66 callsubr
          60 136 -46 callgsubr
          11 144 hintmask 11011111
          -104 callgsubr
          hintmask 11101111
          -76 callsubr
          11 185 -63 callsubr
        </CharString>
        <CharString name="Edotbelow">
          56 -13 callgsubr
          95 39 callgsubr
          -2 175 hintmask 11101110
          -104 callgsubr
          hintmask 11110110
          -76 callsubr
          hintmask 11101101
          -2 -891 -103 callgsubr
          endchar
        </CharString>
        <CharString name="Egrave">
          56 0 -66 callsubr
          -57 250 -46 callgsubr
          hintmask 11011010
          -104 callgsubr
          hintmask 11101010
          -76 callsubr
          178 132 42 callsubr
          hintmask 11010110
          -73 callgsubr
        </CharString>
        <CharString name="Emacron">
          56 0 -66 callsubr
          94 96 -46 callgsubr
          hintmask 11011110
          -104 callgsubr
          hintmask 11101110
          -76 callsubr
          235 151 -36 callgsubr
        </CharString>
        <CharString name="Eng">
          202 33 callgsubr
          98 35 callgsubr
          82 callsubr
          389 172 -69 69 hintmask 10111010
          -99 callsubr
          hintmask 10111100
          389 -490 rlineto
          -163 vlineto
          -108 -32 -52 -40 -25 -16 19 45 -15 vhcurveto
          hintmask 01111010
          36 -13 -20 26 -40 hhcurveto
          -40 -32 -26 -50 -65 61 -42 108 94 98 43 86 50 hvcurveto
          30 51 4 38 182 vvcurveto
          endchar
        </CharString>
        <CharString name="Eogonek">
          56 -256 75 181 39 callgsubr
          111 113 hintmask 11110111
          627 -51 callgsubr
          36 20 41 43 47 hvcurveto
          63 hlineto
          42 234 rlineto
          -52 hlineto
          48 callsubr
          323 126 hlineto
          21 -37 14 -39 8 -37 rrcurveto
          42 280 -42 hlineto
          -8 -37 -13 -39 84 callsubr
          hintmask 11101111
          34 -52 25 -59 18 -52 rrcurveto
          42 hlineto
          -19 38 callsubr
          482 vlineto
          -71 -54 -43 -62 64 callgsubr
          endchar
        </CharString>
        <CharString name="Eth">
          -69 callsubr
        </CharString>
        <CharString name="Etilde">
          56 0 -66 callsubr
          50 -25 callsubr
          127 172 hintmask 1101110001100000
          -104 callgsubr
          hintmask 1110101101100000
          -76 callsubr
          -46 108 -50 callgsubr
          hintmask 1101110001100000
          50 19 -39 56 hhcurveto
          68 34 53 -69 callgsubr
          hintmask 1101101010100000
          -50 callsubr
          -48 -94 hvcurveto
          endchar
        </CharString>
        <CharString name="Euro">
          -32 36 callsubr
          465 -40 callgsubr
          hlineto
          -1 -10 0 -10 -10 vvcurveto
          -27 -68 vlineto
          -22 callsubr
        </CharString>
        <CharString name="Euro.tnum">
          -75 36 callsubr
          431 -40 callgsubr
          -57 -69 hlineto
          -22 callsubr
        </CharString>
        <CharString name="F">
          9 21 -21 381 53 113 -20 23 -20 183 57 hstemhm
          127 171 hintmask 11011100
          560 713 rmoveto
          33 -52 23 -59 16 -52 rrcurveto
          39 hlineto
          -17 38 callsubr
          370 37 vlineto
          -114 19 rlineto
          325 135 vlineto
          18 -38 12 -38 7 -38 rrcurveto
          39 hlineto
          hintmask 11101100
          280 -39 vlineto
          -7 -38 -11 -37 -19 -38 rrcurveto
          -135 279 hlineto
          endchar
        </CharString>
        <CharString name="G">
          180 -10 58 672 60 -10 -20 60 callsubr
          hintmask 11011000
          -88 callgsubr
          hintmask 10111000
          245 -32 -14 callsubr
          hintmask 11011000
          -67 callsubr
          endchar
        </CharString>
        <CharString name="Gbreve">
          180 -10 58 672 60 -10 -20 79 104 -104 136 60 callsubr
          hintmask 11010110
          -88 callgsubr
          hintmask 10110110
          245 -32 -14 callsubr
          hintmask 11001110
          -67 callsubr
          -453 884 -56 callsubr
          hintmask 11010110
          26 callsubr
          hintmask 11001110
          8 callgsubr
        </CharString>
        <CharString name="Gcircumflex">
          180 -10 58 672 60 -60 240 -190 -20 60 callsubr
          hintmask 11001100
          -88 callgsubr
          hintmask 10011100
          245 -32 -14 callsubr
          hintmask 11001100
          -67 callsubr
          hintmask 10101100
          -302 879 -98 callsubr
        </CharString>
        <CharString name="Gcommaaccent">
          180 -4 callgsubr
          42 0 58 672 60 -10 -20 hstemhm
          45 192 126 70 callsubr
          79 172 hintmask 1011011010000000
          -88 callgsubr
          hintmask 1100111010000000
          245 -32 -14 callsubr
          hintmask 1101011010000000
          -67 callsubr
          -350 -341 rmoveto
          -80 callsubr
          hintmask 1101010110000000
          -73 callsubr
        </CharString>
        <CharString name="Gdotaccent">
          180 -10 58 672 60 -10 -20 80 136 hstemhm
          45 192 142 144 54 172 hintmask 11011110
          -88 callgsubr
          hintmask 10111110
          245 -32 -14 callsubr
          hintmask 11011110
          -67 callsubr
          -370 817 -63 callsubr
        </CharString>
        <CharString name="H">
          248 21 -21 378 57 335 -20 hstem
          -61 callsubr
          326 172 vstem
          625 58 rmoveto
          -85 -21 rlineto
          41 callsubr
          -84 21 rlineto
          655 vlineto
          84 20 rlineto
          37 -341 -37 vlineto
          85 -20 rlineto
          -278 -326 278 vlineto
          84 20 rlineto
          37 -341 -37 vlineto
          85 -20 rlineto
          -655 vlineto
          -85 -21 rlineto
          41 callsubr
          -84 21 rlineto
          320 326 vlineto
          endchar
        </CharString>
        <CharString name="Hbar">
          250 21 -21 378 57 102 75 -75 233 hstemhm
          128 172 326 172 hintmask 11101100
          128 58 rmoveto
          -85 -21 rlineto
          41 callsubr
          -84 21 rlineto
          320 326 -320 vlineto
          -85 -21 rlineto
          41 callsubr
          -84 21 rlineto
          479 77 75 -77 31 callsubr
          -326 31 callsubr
          -75 -75 75 vlineto
          172 hmoveto
          326 -102 -326 hlineto
          endchar
        </CharString>
        <CharString name="Hcircumflex">
          248 21 -21 378 57 335 -20 210 -20 hstem
          -61 callsubr
          326 172 vstem
          625 58 rmoveto
          -85 -21 rlineto
          41 callsubr
          -84 21 rlineto
          655 vlineto
          84 20 rlineto
          37 -341 -37 vlineto
          85 -20 rlineto
          -278 -326 278 vlineto
          84 20 rlineto
          37 -341 -37 vlineto
          85 -20 rlineto
          -655 vlineto
          -85 -21 rlineto
          41 callsubr
          -84 21 rlineto
          320 326 vlineto
          -164 582 -98 callsubr
        </CharString>
        <CharString name="Hdotbelow">
          248 30 callgsubr
          378 57 335 -20 hstem
          -61 callsubr
          76 175 75 172 vstem
          625 58 rmoveto
          -85 -21 rlineto
          41 callsubr
          -84 21 rlineto
          655 vlineto
          84 20 rlineto
          37 -341 -37 vlineto
          85 -20 rlineto
          -278 -326 278 vlineto
          84 20 rlineto
          37 -341 -37 vlineto
          85 -20 rlineto
          -655 vlineto
          -85 -21 rlineto
          41 callsubr
          -84 21 rlineto
          320 326 vlineto
          -250 -556 -103 callgsubr
          endchar
        </CharString>
        <CharString name="I">
          -15 callgsubr
          hstem
          -61 callsubr
          vstem
          127 58 rmoveto
          -85 -21 rlineto
          41 callsubr
          -84 21 rlineto
          655 vlineto
          84 20 rlineto
          37 -341 -37 vlineto
          85 -20 rlineto
          endchar
        </CharString>
        <CharString name="IJ">
          159 33 callgsubr
          98 -21 770 20 callgsubr
          245 172 hintmask 10111100
          127 58 rmoveto
          -85 -21 rlineto
          41 callsubr
          -84 21 rlineto
          655 vlineto
          84 20 rlineto
          37 -341 -37 vlineto
          85 -20 rlineto
          589 hmoveto
          -60 callsubr
          hintmask 01111100
          -64 callsubr
          endchar
        </CharString>
        <CharString name="Iacute">
          -15 callgsubr
          215 -20 hstem
          -61 callsubr
          vstem
          127 58 rmoveto
          -85 -21 rlineto
          41 callsubr
          -84 21 rlineto
          655 vlineto
          84 20 rlineto
          37 -341 -37 vlineto
          85 -20 rlineto
          -13 106 -74 callgsubr
          -87 callgsubr
        </CharString>
        <CharString name="Ibreve">
          -15 callgsubr
          79 104 -104 136 -46 callgsubr
          hintmask 11011000
          127 58 rmoveto
          -85 -21 rlineto
          41 callsubr
          -84 21 rlineto
          655 vlineto
          84 20 rlineto
          37 -341 -37 vlineto
          85 -20 rlineto
          -61 252 -56 callsubr
          hintmask 11101000
          26 callsubr
          hintmask 11011000
          8 callgsubr
        </CharString>
        <CharString name="Icircumflex">
          -15 callgsubr
          211 -20 hstem
          -61 callsubr
          vstem
          127 58 rmoveto
          -85 -21 rlineto
          41 callsubr
          -84 21 rlineto
          655 vlineto
          84 20 rlineto
          37 -341 -37 vlineto
          85 -20 rlineto
          90 248 -98 callsubr
        </CharString>
        <CharString name="Idieresis">
          -15 callgsubr
          79 136 hstemhm
          42 139 -54 172 -55 139 hintmask 11101000
          127 58 rmoveto
          hintmask 11110100
          -85 -21 rlineto
          41 callsubr
          hintmask 11101000
          -84 21 rlineto
          655 vlineto
          hintmask 11110100
          84 20 rlineto
          37 -341 -37 vlineto
          hintmask 11101000
          85 -20 rlineto
          -90 183 rmoveto
          -32 24 -35 47 vhcurveto
          hintmask 11110100
          48 25 35 32 36 -28 33 -45 -45 -26 -33 -36 hvcurveto
          207 hmoveto
          -32 25 -35 46 49 24 35 32 36 -28 33 -45 -45 -26 -33 -36 vhcurveto
          endchar
        </CharString>
        <CharString name="Idotaccent">
          -15 callgsubr
          80 136 -46 callgsubr
          -156 144 hintmask 11110000
          127 58 rmoveto
          -85 -21 rlineto
          41 callsubr
          -84 21 rlineto
          655 vlineto
          84 20 rlineto
          37 -341 -37 vlineto
          85 -20 rlineto
          hintmask 11101000
          16 185 -63 callsubr
        </CharString>
        <CharString name="Idotbelow">
          -250 30 callgsubr
          770 -20 hstem
          -61 callsubr
          vstem
          127 58 rmoveto
          -85 -21 rlineto
          41 callsubr
          -84 21 rlineto
          655 vlineto
          84 20 rlineto
          37 -341 -37 vlineto
          85 -20 rlineto
          -891 vmoveto
          -41 30 -41 56 59 30 41 41 77 callgsubr
        </CharString>
        <CharString name="Igrave">
          -15 callgsubr
          213 -20 hstem
          -61 callsubr
          vstem
          127 58 rmoveto
          -85 -21 rlineto
          41 callsubr
          -84 21 rlineto
          655 vlineto
          84 20 rlineto
          37 -341 -37 vlineto
          85 -20 rlineto
          210 132 42 callsubr
          -73 callgsubr
        </CharString>
        <CharString name="Imacron">
          -15 callgsubr
          114 96 hstem
          -61 callsubr
          vstem
          127 58 rmoveto
          -85 -21 rlineto
          41 callsubr
          -84 21 rlineto
          655 vlineto
          84 20 rlineto
          37 -341 -37 vlineto
          85 -20 rlineto
          240 151 -36 callgsubr
        </CharString>
        <CharString name="Iogonek">
          -250 -256 75 202 35 callgsubr
          hstemhm
          66 113 -52 172 hintmask 11110000
          283 -51 callgsubr
          36 20 41 43 47 hvcurveto
          141 37 hlineto
          hintmask 11101000
          -84 21 rlineto
          655 vlineto
          84 20 rlineto
          37 -341 -37 vlineto
          85 -20 rlineto
          -655 vlineto
          -85 -21 rlineto
          -37 138 vlineto
          hintmask 11110000
          -71 -54 -43 -62 64 callgsubr
          endchar
        </CharString>
        <CharString name="Itilde">
          -15 callgsubr
          70 -25 callsubr
          127 172 hintmask 11011011
          127 58 rmoveto
          -85 -21 rlineto
          41 callsubr
          -84 21 rlineto
          655 vlineto
          84 20 rlineto
          37 -341 -37 vlineto
          85 -20 rlineto
          -36 108 -50 callgsubr
          hintmask 11100011
          50 19 -39 56 hhcurveto
          68 34 53 -69 callgsubr
          hintmask 11010101
          -50 callsubr
          -48 -94 hvcurveto
          endchar
        </CharString>
        <CharString name="J">
          -266 33 callgsubr
          847 -20 hstemhm
          119 172 hintmask 10110000
          291 713 rmoveto
          -60 callsubr
          hintmask 01110000
          -64 callsubr
          endchar
        </CharString>
        <CharString name="Jcircumflex">
          -266 33 callgsubr
          847 -20 210 -20 hstemhm
          119 172 hintmask 10111000
          291 713 rmoveto
          -60 callsubr
          hintmask 01111000
          -64 callsubr
          -82 805 -98 callsubr
        </CharString>
        <CharString name="K">
          132 21 -21 734 36 hstem
          -61 callsubr
          84 170 vstem
          42 hmoveto
          341 37 hlineto
          -84 21 rlineto
          270 vlineto
          22 23 246 -351 rlineto
          267 37 hlineto
          -91 19 -304 423 176 192 33 36 21 11 94 15 rlinecurve
          37 -287 -36 vlineto
          51 -2 26 -8 -19 vvcurveto
          -8 -3 -12 -11 -11 vhcurveto
          -240 -258 rlineto
          297 vlineto
          84 20 rlineto
          37 -341 -37 vlineto
          85 -20 rlineto
          -655 vlineto
          -85 -21 rlineto
          endchar
        </CharString>
        <CharString name="Kcommaaccent">
          132 -4 callgsubr
          52 734 36 -46 callgsubr
          73 135 -124 170 -134 88 hintmask 11110100
          42 hmoveto
          341 37 hlineto
          -84 21 rlineto
          270 vlineto
          22 23 246 -351 rlineto
          267 37 hlineto
          -91 19 -304 423 176 192 33 36 21 11 94 15 rlinecurve
          37 -287 -36 vlineto
          51 -2 26 -8 -19 vvcurveto
          -8 -3 -12 -11 -11 vhcurveto
          -240 -258 rlineto
          297 vlineto
          84 20 rlineto
          37 -341 -37 vlineto
          85 -20 rlineto
          -655 vlineto
          -85 -21 rlineto
          366 -297 rmoveto
          hintmask 11111000
          -80 callsubr
          hintmask 11110010
          -73 callsubr
        </CharString>
        <CharString name="L">
          24 0 57 713 -20 hstem
          -61 callsubr
          vstem
          393 73 callgsubr
          -658 vlineto
          -85 -19 rlineto
          -37 607 vlineto
          42 234 rlineto
          -52 hlineto
          48 callsubr
          656 hlineto
          endchar
        </CharString>
        <CharString name="Lacute">
          24 0 57 713 -20 213 -20 hstem
          393 73 callgsubr
          -658 vlineto
          -85 -19 rlineto
          -37 607 vlineto
          42 234 rlineto
          -52 hlineto
          48 callsubr
          656 hlineto
          -181 104 -74 callgsubr
          -87 callgsubr
        </CharString>
        <CharString name="Lcaron">
          24 0 57 713 61 139 -20 hstem
          -61 callsubr
          vstem
          393 73 callgsubr
          -658 vlineto
          -85 -19 rlineto
          -37 607 vlineto
          42 234 rlineto
          -52 hlineto
          48 callsubr
          656 hlineto
          -81 118 -95 callgsubr
        </CharString>
        <CharString name="Lcommaaccent">
          24 -4 callgsubr
          52 0 57 713 20 callgsubr
          58 88 hintmask 11011100
          393 73 callgsubr
          -658 vlineto
          -85 -19 rlineto
          -37 607 vlineto
          42 234 rlineto
          -52 hlineto
          hintmask 10111100
          48 callsubr
          656 hlineto
          47 -973 rmoveto
          63 27 36 47 56 vvcurveto
          hintmask 11011100
          48 -26 30 -42 -39 -28 -23 -30 vhcurveto
          -73 callsubr
        </CharString>
        <CharString name="Ldot">
          24 0 57 174 174 365 -20 hstem
          -61 callsubr
          83 180 vstem
          393 73 callgsubr
          -658 vlineto
          -85 -19 rlineto
          -37 607 vlineto
          42 234 rlineto
          -52 hlineto
          48 callsubr
          656 hlineto
          83 -396 rmoveto
          -75 callsubr
          endchar
        </CharString>
        <CharString name="Lslash">
          25 0 57 713 -20 hstemhm
          128 172 -172 245 hintmask 11010000
          394 73 callgsubr
          -308 vlineto
          -67 -35 rlineto
          -95 vlineto
          67 35 rlineto
          -255 vlineto
          -85 -19 rlineto
          -37 607 vlineto
          42 234 rlineto
          -52 hlineto
          -62 callgsubr
          hintmask 11100000
          -249 346 hlineto
          hintmask 11010000
          73 39 rlineto
          95 vlineto
          hintmask 11100000
          -73 -39 rlineto
          215 vlineto
          endchar
        </CharString>
        <CharString name="M">
          398 11 33 callsubr
          82 callsubr
          578 172 hintmask 01111000
          128 56 rmoveto
          -89 -19 rlineto
          -37 246 37 vlineto
          -88 19 rlineto
          565 4 vlineto
          hintmask 10111000
          271 -631 rlineto
          48 hlineto
          251 604 rlineto
          4 -536 hlineto
          -85 -21 rlineto
          hintmask 01111000
          41 callsubr
          -84 21 rlineto
          655 vlineto
          84 20 rlineto
          37 -257 vlineto
          -217 -516 rlineto
          -6 hlineto
          -208 516 rlineto
          -303 -37 hlineto
          88 -19 rlineto
          endchar
        </CharString>
        <CharString name="N">
          10 callsubr
          82 callsubr
          492 69 hintmask 01111000
          -99 callsubr
          hintmask 10111000
          -7 callsubr
          endchar
        </CharString>
        <CharString name="NULL">
          -675 endchar
        </CharString>
        <CharString name="Nacute">
          10 callsubr
          213 32 callsubr
          hintmask 01111100
          -99 callsubr
          hintmask 10111100
          -7 callsubr
          -379 827 -74 callgsubr
          -87 callgsubr
        </CharString>
        <CharString name="Ncaron">
          10 callsubr
          81 -20 159 32 callsubr
          hintmask 01111110
          -99 callsubr
          hintmask 10111110
          -7 callsubr
          -270 841 -95 callgsubr
        </CharString>
        <CharString name="Ncommaaccent">
          203 -239 -21 271 33 callsubr
          82 callsubr
          198 70 callsubr
          159 69 hintmask 10111101
          -99 callsubr
          hintmask 11011101
          -7 callsubr
          -327 -250 rmoveto
          -80 callsubr
          hintmask 10111011
          -73 callsubr
        </CharString>
        <CharString name="Ndotaccent">
          10 callsubr
          80 136 82 callsubr
          213 144 135 69 hintmask 01111110
          -99 callsubr
          hintmask 10111110
          -7 callsubr
          -348 908 -63 callsubr
        </CharString>
        <CharString name="Ntilde">
          10 callsubr
          70 -25 callsubr
          128 69 492 69 hintmask 0111000111000000
          -99 callsubr
          hintmask 1010110111000000
          -7 callsubr
          -406 831 -50 callgsubr
          hintmask 0111000111000000
          50 19 -39 56 hhcurveto
          68 34 53 -69 callgsubr
          hintmask 0110101011000000
          -50 callsubr
          -48 -94 hvcurveto
          endchar
        </CharString>
        <CharString name="O">
          -16 callsubr
          hstem
          22 callgsubr
          vstem
          -105 callsubr
          endchar
        </CharString>
        <CharString name="OE">
          497 -10 67 -36 -21 380 54 113 -20 23 -20 190 50 10 -20 hstemhm
          45 197 326 172 hintmask 1010110110000000
          995 713 rmoveto
          34 -52 25 -59 18 -52 78 callgsubr
          -561 hlineto
          hintmask 1010101110000000
          6 -31 -34 4 -35 hhcurveto
          -250 -139 -178 -217 -217 139 -178 250 hvcurveto
          hintmask 0110110110000000
          35 32 4 6 31 hvcurveto
          558 hlineto
          42 234 rlineto
          -52 hlineto
          hintmask 1011010110000000
          48 callsubr
          323 126 hlineto
          21 -37 14 -39 8 -37 rrcurveto
          42 280 -42 hlineto
          -8 -37 -13 -39 -22 -37 rrcurveto
          -126 279 hlineto
          -306 -665 rmoveto
          -161 -31 198 139 138 31 197 161 62 43 -23 -34 29 hvcurveto
          -560 vlineto
          -33 -29 -44 -22 -61 hhcurveto
          endchar
        </CharString>
        <CharString name="Oacute">
          -16 callsubr
          -60 243 21 callsubr
          hintmask 11011000
          -105 callsubr
          106 432 -74 callgsubr
          hintmask 10111000
          -87 callgsubr
        </CharString>
        <CharString name="Obreve">
          -16 callsubr
          49 104 -104 136 21 callsubr
          hintmask 11011100
          -105 callsubr
          51 580 -56 callsubr
          hintmask 11101100
          26 callsubr
          hintmask 11011100
          8 callgsubr
        </CharString>
        <CharString name="Ocircumflex">
          -16 callsubr
          -60 240 21 callsubr
          hintmask 11011000
          -105 callsubr
          hintmask 10111000
          202 575 -98 callsubr
        </CharString>
        <CharString name="Odieresis">
          -16 callsubr
          50 136 hstem
          45 197 27 82 callgsubr
          7 197 vstem
          -105 callsubr
          27 512 -86 callsubr
        </CharString>
        <CharString name="Odotbelow">
          194 -13 callgsubr
          85 58 672 60 hstem
          45 197 108 175 102 197 vstem
          -105 callsubr
          108 -563 -103 callgsubr
          endchar
        </CharString>
        <CharString name="Ograve">
          -16 callsubr
          -60 243 21 callsubr
          hintmask 11011000
          -105 callsubr
          310 460 42 callsubr
          hintmask 10111000
          -73 callgsubr
        </CharString>
        <CharString name="Ohungarumlaut">
          -16 callsubr
          -60 245 21 callsubr
          hintmask 11011000
          -105 callsubr
          33 431 rmoveto
          136 35 rlineto
          36 9 13 28 23 vvcurveto
          hintmask 10111000
          28 -22 26 -33 -19 -22 -10 -25 -24 vhcurveto
          -86 -89 rlineto
          227 -25 -57 callgsubr
          endchar
        </CharString>
        <CharString name="Omacron">
          -16 callsubr
          84 96 hstem
          22 callgsubr
          vstem
          -105 callsubr
          352 479 -36 callgsubr
        </CharString>
        <CharString name="Oogonek">
          194 -256 75 172 57 672 60 hstem
          45 197 59 113 213 197 vstem
          518 -51 callgsubr
          34 18 38 38 44 hvcurveto
          228 15 126 171 207 vvcurveto
          217 -139 178 -251 -250 -139 -178 -217 -208 128 -172 230 -14 vhcurveto
          -64 -51 -38 -59 65 callsubr
          -291 587 rmoveto
          138 31 197 161 164 29 -197 -138 -139 -31 -198 -162 -161 -31 198 139 vhcurveto
          endchar
        </CharString>
        <CharString name="Oslash">
          192 -10 58 -27 -21 720 60 -10 -20 hstemhm
          44 19 callgsubr
          hintmask 10011100
          8 callsubr
          hintmask 01101100
          2 callsubr
          hintmask 10101100
          -37 callgsubr
          endchar
        </CharString>
        <CharString name="Oslashacute">
          192 -10 58 -27 -21 720 60 -60 243 -193 -20 hstemhm
          44 19 callgsubr
          hintmask 10001110
          8 callsubr
          hintmask 01100110
          2 callsubr
          hintmask 10010110
          -37 callgsubr
          -90 769 -74 callgsubr
          -87 callgsubr
        </CharString>
        <CharString name="Otilde">
          -16 callsubr
          40 -25 callsubr
          45 197 385 197 hintmask 1101101110000000
          -105 callsubr
          76 436 -50 callgsubr
          hintmask 1110001110000000
          50 19 -39 56 hhcurveto
          68 34 53 -69 callgsubr
          hintmask 1101010110000000
          -50 callsubr
          -48 -94 hvcurveto
          endchar
        </CharString>
        <CharString name="P">
          19 21 -21 320 54 342 54 hstem
          -61 callsubr
          187 183 vstem
          42 733 rmoveto
          85 -21 rlineto
          -653 57 callsubr
          261 37 callsubr
          -333 hlineto
          257 -54 rmoveto
          1 callsubr
        </CharString>
        <CharString name="Q">
          194 -194 137 -117 -21 173 60 682 60 hstemhm
          45 197 -55 123 -123 142 298 197 hintmask 10111001
          434 780 rmoveto
          -250 -139 -178 -217 -173 93 -148 162 -53 hvcurveto
          -4 vlineto
          hintmask 01110011
          -70 -28 -43 -43 -54 vvcurveto
          -44 28 -33 42 41 31 30 39 vhcurveto
          hintmask 10110101
          30 -19 9 23 vvcurveto
          27 25 15 34 vhcurveto
          127 25 -172 131 hhcurveto
          73 76 54 106 44 hvcurveto
          -30 20 rlineto
          -32 -32 -32 -11 -41 hhcurveto
          -74 -58 33 19 -61 hvcurveto
          4 vlineto
          196 36 111 159 191 vvcurveto
          217 -139 178 -251 vhcurveto
          hintmask 10111001
          -192 -397 rmoveto
          139 30 198 163 163 29 -198 -137 -143 -31 -204 -162 -161 -31 204 141 vhcurveto
          endchar
        </CharString>
        <CharString name="R">
          103 21 -21 716 54 hstem
          -61 callsubr
          196 175 vstem
          -98 callgsubr
          endchar
        </CharString>
        <CharString name="Racute">
          103 21 -21 716 54 193 -20 hstem
          -61 callsubr
          196 175 vstem
          -98 callgsubr
          -42 428 -74 callgsubr
          -87 callgsubr
        </CharString>
        <CharString name="Rcaron">
          103 21 -21 716 54 0 61 59 callgsubr
          196 175 hintmask 11011100
          -98 callgsubr
          hintmask 10111100
          52 442 -95 callgsubr
        </CharString>
        <CharString name="Rcommaaccent">
          103 -4 callgsubr
          52 716 54 -46 callgsubr
          77 70 callsubr
          -16 175 hintmask 11110010
          -98 callgsubr
          99 -649 rmoveto
          hintmask 11111000
          -80 callsubr
          hintmask 11110100
          -73 callsubr
        </CharString>
        <CharString name="Rdotbelow">
          103 30 callgsubr
          716 54 -46 callgsubr
          54 175 -33 175 hintmask 11110100
          -98 callgsubr
          hintmask 11111000
          40 -567 -103 callgsubr
          endchar
        </CharString>
        <CharString name="S">
          72 callgsubr
          -9 48 callgsubr
          hintmask 10110110
          326 780 rmoveto
          -84 callsubr
          hintmask 01110110
          -20 callgsubr
          hintmask 10110110
          -82 callgsubr
          hintmask 10101110
          -19 callsubr
          hintmask 10110110
          26 callgsubr
          endchar
        </CharString>
        <CharString name="Sacute">
          66 callgsubr
          242 -192 48 callgsubr
          hintmask 10110011
          326 780 rmoveto
          -84 callsubr
          hintmask 01110011
          -20 callgsubr
          hintmask 10110011
          -82 callgsubr
          hintmask 10100111
          -19 callsubr
          hintmask 10110011
          26 callgsubr
          -96 37 -74 callgsubr
          hintmask 10101011
          -87 callgsubr
        </CharString>
        <CharString name="Scaron">
          72 callgsubr
          -9 -20 29 51 139 48 callgsubr
          hintmask 1011001110000000
          326 780 rmoveto
          -84 callsubr
          hintmask 0111001110000000
          -20 callgsubr
          hintmask 1011001110000000
          -82 callgsubr
          hintmask 1010111110000000
          -19 callsubr
          hintmask 1011001110000000
          26 callgsubr
          hintmask 1010111110000000
          11 51 -95 callgsubr
        </CharString>
        <CharString name="Schwa">
          117 -10 60 214 60 352 105 hstem
          33 188 330 195 vstem
          33 315 rmoveto
          -209 3 112 -116 201 hhcurveto
          238 159 163 243 230 -142 155 -209 -148 -135 -77 -111 -44 hvcurveto
          -8 -20 30 -20 18 22 rlineto
          61 50 90 40 89 hhcurveto
          143 71 -105 -211 -13 0 -12 -1 -11 hvcurveto
          -506 hlineto
          315 -274 rmoveto
          -89 -49 55 100 17 2 21 2 16 hvcurveto
          321 11 rlineto
          -145 -18 -63 -75 -106 hhcurveto
          endchar
        </CharString>
        <CharString name="Scircumflex">
          66 callgsubr
          239 -189 48 callgsubr
          hintmask 10110011
          326 780 rmoveto
          -84 callsubr
          hintmask 01110011
          -20 callgsubr
          hintmask 10110011
          -82 callgsubr
          hintmask 10100111
          -19 callsubr
          hintmask 10110011
          26 callgsubr
          hintmask 10101011
          11 180 -98 callsubr
        </CharString>
        <CharString name="Sdotbelow">
          -28 -13 callgsubr
          86 -20 callsubr
          -9 -20 hstemhm
          70 152 16 175 48 135 hintmask 1101101110000000
          326 780 rmoveto
          -84 callsubr
          hintmask 1011101110000000
          -20 callgsubr
          hintmask 1101101110000000
          -82 callgsubr
          hintmask 1101011110000000
          -19 callsubr
          hintmask 1101101110000000
          26 callgsubr
          -88 -958 -103 callgsubr
          endchar
        </CharString>
        <CharString name="T">
          103 31 callgsubr
          195 55 hstem
          305 171 vstem
          185 hmoveto
          410 37 hlineto
          -85 callgsubr
          endchar
        </CharString>
        <CharString name="Tbar">
          105 21 -21 367 85 88 -20 195 55 hstem
          306 171 vstem
          186 hmoveto
          410 37 hlineto
          -119 22 rlineto
          308 160 85 -160 263 163 vlineto
          43 -55 26 -65 20 -55 rrcurveto
          39 hlineto
          -37 230 rlineto
          -682 hlineto
          -37 -230 rlineto
          39 hlineto
          20 55 29 65 43 55 rrcurveto
          163 -263 -159 -85 159 -308 hlineto
          -120 -22 rlineto
          endchar
        </CharString>
        <CharString name="Tcaron">
          103 31 callgsubr
          250 51 139 -20 hstem
          305 171 vstem
          185 hmoveto
          410 37 hlineto
          -85 callgsubr
          206 784 -95 callgsubr
        </CharString>
        <CharString name="Tdotbelow">
          103 30 callgsubr
          540 -20 195 55 hstem
          305 171 vstem
          185 hmoveto
          410 37 hlineto
          -85 callgsubr
          121 -215 -103 callgsubr
          endchar
        </CharString>
        <CharString name="Thorn">
          21 0 217 -54 54 342 54 -54 211 -46 callgsubr
          187 183 hintmask 10011100
          424 733 rmoveto
          37 -382 -37 vlineto
          85 -22 rlineto
          -652 57 callsubr
          hintmask 01101100
          104 37 callsubr
          -76 98 hlineto
          -152 vmoveto
          1 callsubr
        </CharString>
        <CharString name="U">
          -15 callsubr
          hstem
          55 callsubr
          356 69 vstem
          -107 callsubr
          endchar
        </CharString>
        <CharString name="Uacute">
          -15 callsubr
          213 -20 hstem
          55 callsubr
          356 69 vstem
          -107 callsubr
          80 550 -74 callgsubr
          -87 callgsubr
        </CharString>
        <CharString name="Ubreve">
          -15 callsubr
          79 104 -104 136 hstemhm
          55 callsubr
          356 69 hintmask 11011100
          -107 callsubr
          30 698 -56 callsubr
          hintmask 11101100
          26 callsubr
          hintmask 11011100
          8 callgsubr
        </CharString>
        <CharString name="Ucircumflex">
          -15 callsubr
          210 -20 hstem
          55 callsubr
          356 69 vstem
          -107 callsubr
          181 693 -98 callsubr
        </CharString>
        <CharString name="Udieresis">
          -15 callsubr
          52 136 hstemhm
          55 callsubr
          10 82 callgsubr
          -5 69 hintmask 11111010
          -107 callsubr
          10 602 rmoveto
          -32 24 -35 47 48 25 35 32 36 -28 33 -45 -45 -26 -33 -36 vhcurveto
          hintmask 11111100
          207 hmoveto
          -32 25 -35 46 49 24 35 32 36 -28 33 -45 -45 -26 -33 -36 vhcurveto
          endchar
        </CharString>
        <CharString name="Udotbelow">
          146 -13 callgsubr
          85 62 callsubr
          hstem
          55 callsubr
          65 175 116 69 vstem
          -107 callsubr
          65 -445 -103 callgsubr
          endchar
        </CharString>
        <CharString name="Ugrave">
          -15 callsubr
          213 -20 hstem
          55 callsubr
          356 69 vstem
          -107 callsubr
          294 578 42 callsubr
          -73 callgsubr
        </CharString>
        <CharString name="Uhungarumlaut">
          -15 callsubr
          215 -20 hstem
          55 callsubr
          356 69 vstem
          -107 callsubr
          34 549 -30 callgsubr
        </CharString>
        <CharString name="Umacron">
          -15 callsubr
          114 96 hstem
          55 callsubr
          356 69 vstem
          -107 callsubr
          328 597 -36 callgsubr
        </CharString>
        <CharString name="Uogonek">
          147 -256 75 171 62 callsubr
          hstem
          55 callsubr
          26 113 217 69 vstem
          528 -51 callgsubr
          35 19 38 38 44 hvcurveto
          85 10 60 34 38 59 rrcurveto
          30 47 16 64 76 vvcurveto
          431 vlineto
          89 19 rlineto
          37 -246 -37 vlineto
          88 -19 rlineto
          -374 vlineto
          -116 -13 -66 -31 -43 vhcurveto
          -41 -30 -47 -22 -61 hhcurveto
          -111 -63 79 136 hvcurveto
          447 vlineto
          88 19 rlineto
          37 -347 -12 callgsubr
          -447 vlineto
          -83 12 -48 31 -39 vhcurveto
          51 -67 91 -38 116 -2 rrcurveto
          -64 -51 -37 -58 65 callsubr
          endchar
        </CharString>
        <CharString name="Uring">
          -15 callsubr
          80 140 hstem
          55 callsubr
          111 140 105 69 vstem
          -107 callsubr
          181 563 -51 callsubr
        </CharString>
        <CharString name="Utilde">
          -15 callsubr
          70 -25 callsubr
          55 callsubr
          356 69 hintmask 1101101110000000
          -107 callsubr
          57 554 -50 callgsubr
          hintmask 1110001110000000
          50 19 -39 56 hhcurveto
          68 34 53 -69 callgsubr
          hintmask 1101010110000000
          -50 callsubr
          -48 -94 hvcurveto
          endchar
        </CharString>
        <CharString name="V">
          106 11 -21 743 37 hstem
          418 -10 rmoveto
          247 632 32 82 18 15 90 14 rlinecurve
          37 -309 -37 vlineto
          82 -11 29 -17 -36 vvcurveto
          -12 -3 -15 -7 -18 vhcurveto
          -142 -370 rlineto
          -6 hlineto
          -149 412 rlineto
          -4 11 -2 9 8 vvcurveto
          25 24 9 74 5 vhcurveto
          37 -412 -37 vlineto
          71 -5 18 -11 19 -45 282 -682 rcurveline
          endchar
        </CharString>
        <CharString name="W">
          29 callsubr
          hstem
          -102 callsubr
          endchar
        </CharString>
        <CharString name="Wacute">
          29 callsubr
          -37 230 hstemhm
          hintmask 11000000
          -102 callsubr
          174 827 -74 callgsubr
          hintmask 10100000
          -87 callgsubr
        </CharString>
        <CharString name="Wcircumflex">
          29 callsubr
          -37 227 hstemhm
          hintmask 11000000
          -102 callsubr
          hintmask 10100000
          277 970 -98 callsubr
        </CharString>
        <CharString name="Wdieresis">
          29 callsubr
          60 136 hstem
          605 63 vstem
          -102 callsubr
          102 907 -86 callsubr
        </CharString>
        <CharString name="Wgrave">
          29 callsubr
          -37 230 hstemhm
          hintmask 11000000
          -102 callsubr
          381 855 42 callsubr
          hintmask 10100000
          -73 callgsubr
        </CharString>
        <CharString name="X">
          165 0 37 696 37 hstem
          -7 hmoveto
          294 37 hlineto
          -58 6 -26 10 17 vvcurveto
          9 5 14 12 16 vhcurveto
          154 208 152 -226 rlineto
          12 -18 4 -10 -6 vvcurveto
          -11 -19 -4 -79 -5 vhcurveto
          -37 415 37 vlineto
          -62 5 -26 8 -20 30 -243 363 rcurveline
          166 221 31 41 20 13 86 15 rlinecurve
          37 -281 -37 vlineto
          59 -6 25 -12 -18 vvcurveto
          -11 -6 -11 -10 -14 vhcurveto
          -124 -167 -123 185 rlineto
          -10 16 -3 8 9 vvcurveto
          13 17 5 72 3 vhcurveto
          37 -417 -37 vlineto
          82 -10 15 -7 18 -26 214 -320 rcurveline
          -195 -262 -31 -42 -34 -18 -86 -11 rlinecurve
          endchar
        </CharString>
        <CharString name="Y">
          34 callgsubr
          hstem
          288 172 vstem
          -100 callgsubr
          endchar
        </CharString>
        <CharString name="Yacute">
          34 callgsubr
          -37 230 hstemhm
          288 172 hintmask 11010000
          -100 callgsubr
          127 780 -74 callgsubr
          hintmask 10110000
          -87 callgsubr
        </CharString>
        <CharString name="Ycircumflex">
          34 callgsubr
          -37 227 hstemhm
          288 172 hintmask 11010000
          -100 callgsubr
          hintmask 10110000
          230 923 -98 callsubr
        </CharString>
        <CharString name="Ydieresis">
          34 callgsubr
          32 136 hstemhm
          261 144 -117 172 8 144 hintmask 11101100
          -100 callgsubr
          hintmask 11110100
          58 832 -86 callsubr
        </CharString>
        <CharString name="Ygrave">
          34 callgsubr
          -37 230 hstemhm
          288 172 hintmask 11010000
          -100 callgsubr
          335 808 42 callsubr
          hintmask 10110000
          -73 callgsubr
        </CharString>
        <CharString name="Ytilde">
          34 callgsubr
          50 -25 callsubr
          288 172 hintmask 11011011
          -100 callgsubr
          109 784 -50 callgsubr
          hintmask 11100011
          50 19 -39 56 hhcurveto
          68 34 53 -69 callgsubr
          hintmask 11010101
          -50 callsubr
          -48 -94 hvcurveto
          endchar
        </CharString>
        <CharString name="Z">
          55 5 callsubr
          hstem
          99 770 -97 callsubr
          endchar
        </CharString>
        <CharString name="Zacute">
          55 5 callsubr
          -55 248 hstemhm
          hintmask 11100000
          99 770 -97 callsubr
          -383 47 -74 callgsubr
          hintmask 11010000
          -87 callgsubr
        </CharString>
        <CharString name="Zcaron">
          55 5 callsubr
          0 61 139 -20 hstemhm
          hintmask 11101000
          99 770 -97 callsubr
          hintmask 11011000
          -288 61 -95 callgsubr
        </CharString>
        <CharString name="Zdotaccent">
          55 5 callsubr
          60 136 hstem
          316 144 vstem
          99 770 -97 callsubr
          -363 128 -63 callsubr
        </CharString>
        <CharString name="Zdotbelow">
          55 -13 callgsubr
          95 55 486 -20 194 55 hstem
          260 175 vstem
          99 770 -97 callsubr
          -419 -948 -103 callgsubr
          endchar
        </CharString>
        <CharString name="a">
          -54 callgsubr
          hstemhm
          38 -3 callgsubr
          hintmask 10100110
          170 -10 -105 callgsubr
          hintmask 10011010
          -88 callsubr
          vhcurveto
          hintmask 01101010
          -81 callsubr
          endchar
        </CharString>
        <CharString name="aacute">
          44 callgsubr
          155 -135 135 138 155 hintmask 10101011
          170 -10 -105 callgsubr
          hintmask 10011101
          -88 callsubr
          vhcurveto
          hintmask 01101101
          -81 callsubr
          2 547 -101 callsubr
          endchar
        </CharString>
        <CharString name="abreve">
          -54 callgsubr
          101 104 -104 149 hstemhm
          38 155 -155 -3 callgsubr
          hintmask 1010100011000000
          170 -10 -105 callgsubr
          hintmask 1001100101000000
          -88 callsubr
          vhcurveto
          hintmask 0110010101000000
          -81 callsubr
          -101 706 -59 callsubr
          hintmask 1010101001000000
          25 callsubr
          hintmask 1010011001000000
          7 callsubr
        </CharString>
        <CharString name="acircumflex">
          44 callgsubr
          -3 callgsubr
          hintmask 10101011
          170 -10 -105 callgsubr
          hintmask 10011101
          -88 callsubr
          vhcurveto
          hintmask 01101101
          -81 callsubr
          48 775 -99 callgsubr
        </CharString>
        <CharString name="acute">
          -494 79 callgsubr
          41 631 -101 callsubr
          endchar
        </CharString>
        <CharString name="acute.cap">
          -414 838 -21 146 -20 hstem
          27 817 -74 callgsubr
          -87 callgsubr
        </CharString>
        <CharString name="adieresis">
          -54 callgsubr
          97 143 hstemhm
          38 27 callgsubr
          -74 152 60 155 hintmask 1010101010000000
          170 -10 -105 callgsubr
          hintmask 1001110010000000
          -88 callsubr
          vhcurveto
          hintmask 0110110010000000
          -81 callsubr
          hintmask 1010100110000000
          -143 624 -90 callgsubr
        </CharString>
        <CharString name="ae">
          223 -10 103 197 51 -38 237 -58 58 hstemhm
          38 155 -155 6 callsubr
          165 210 162 hintmask 1101100110000000
          -28 callsubr
          hintmask 1010001110000000
          -21 callgsubr
          hintmask 1101010110000000
          -49 callgsubr
          endchar
        </CharString>
        <CharString name="aeacute">
          223 -10 103 197 51 -38 237 -58 58 319 -20 hstemhm
          38 155 -135 135 138 165 210 162 hintmask 1101110110000000
          -28 callsubr
          hintmask 1010101110000000
          -21 callgsubr
          hintmask 1101110110000000
          -49 callgsubr
          132 547 -101 callsubr
          endchar
        </CharString>
        <CharString name="agrave">
          44 callgsubr
          -3 callgsubr
          hintmask 10101011
          387 642 -81 callgsubr
          -186 -641 -105 callgsubr
          hintmask 10011101
          -88 callsubr
          vhcurveto
          hintmask 01101101
          -81 callsubr
          endchar
        </CharString>
        <CharString name="amacron">
          -54 callgsubr
          154 96 hstemhm
          38 -3 callgsubr
          hintmask 10101011
          170 -10 -105 callgsubr
          hintmask 10011101
          -88 callsubr
          vhcurveto
          hintmask 01101101
          -81 callsubr
          192 610 -36 callgsubr
        </CharString>
        <CharString name="ampersand">
          150 -10 74 -43 -21 736 44 hstemhm
          57 145 -30 133 0 119 0 105 hintmask 10110010
          255 428 rmoveto
          -146 -103 -52 -49 -95 vvcurveto
          -113 74 -78 167 75 82 16 79 79 vhcurveto
          hintmask 01110010
          70 -85 rlineto
          229 36 hlineto
          hintmask 10101010
          -96 28 -114 141 37 65 25 66 11 41 rlinecurve
          11 41 7 14 79 9 rrcurveto
          42 -255 -42 vlineto
          77 -10 8 -4 -39 vvcurveto
          -41 -9 -52 -23 -51 vhcurveto
          -186 229 rlineto
          61 46 63 62 72 vvcurveto
          75 -68 52 -87 -96 -106 -63 -109 -35 11 -56 72 -89 vhcurveto
          hintmask 10110100
          -53 -195 rmoveto
          74 41 49 43 34 vhcurveto
          216 -266 rlineto
          -39 -47 -54 -21 -48 hhcurveto
          -98 -53 85 84 hvcurveto
          222 401 rmoveto
          -49 -13 -34 -39 -37 vhcurveto
          -48 61 -19 38 45 vvcurveto
          54 28 24 30 30 31 -24 -78 vhcurveto
          endchar
        </CharString>
        <CharString name="aogonek">
          -90 -256 75 171 -22 callgsubr
          hstemhm
          38 155 -155 -3 callgsubr
          -140 113 hintmask 1110100010000000
          563 -51 callgsubr
          39 18 51 56 45 hvcurveto
          58 46 -23 33 rlineto
          -16 -14 -15 -8 -15 hhcurveto
          hintmask 1110001100000000
          -27 -11 25 59 hvcurveto
          206 vlineto
          74 -7 35 -16 25 vhcurveto
          33 -22 -43 17 -72 hhcurveto
          -72 -66 -17 -33 -51 hvcurveto
          -50 -33 -29 -44 -42 vvcurveto
          -40 27 -28 39 39 30 29 38 vhcurveto
          14 -4 15 15 vvcurveto
          hintmask 1101010100000000
          -88 callsubr
          61 53 25 54 50 vhcurveto
          4 hlineto
          -53 10 32 -26 65 hhcurveto
          hintmask 1110010010000000
          -62 -51 -37 -58 65 callsubr
          -316 286 rmoveto
          -39 -18 21 44 hvcurveto
          hintmask 1110100100000000
          56 29 23 97 19 vhcurveto
          -134 vlineto
          -19 -18 -24 -10 -27 hhcurveto
          endchar
        </CharString>
        <CharString name="apostrophe">
          -512 641 -21 237 -20 hstemhm
          10 143 -76 76 hintmask 11100000
          45 620 rmoveto
          47 callsubr
          hintmask 11010000
          58 callgsubr
        </CharString>
        <CharString name="aring">
          -54 callgsubr
          111 50 66 50 hstemhm
          38 27 callgsubr
          31 50 57 59 -59 155 hintmask 1010110110100000
          170 -10 -105 callgsubr
          hintmask 1001111011000000
          -88 callsubr
          vhcurveto
          hintmask 0110111011000000
          -81 callsubr
          45 567 rmoveto
          -48 callgsubr
        </CharString>
        <CharString name="aringacute">
          -54 callgsubr
          76 50 66 211 hstemhm
          38 27 callgsubr
          -18 50 66 50 -10 155 hintmask 1010110100100000
          170 -10 -105 callgsubr
          hintmask 1001111000100000
          -88 callsubr
          vhcurveto
          9 736 rmoveto
          hintmask 0110110011000000
          -3 -9 -1 -9 -9 vvcurveto
          -47 33 -36 50 47 36 36 47 43 -31 35 -42 4 vhcurveto
          39 45 rlineto
          23 26 10 26 20 vvcurveto
          27 -18 18 -27 -39 -24 -23 -43 -12 vhcurveto
          42 -793 rmoveto
          hintmask 0110111000100000
          -39 -18 21 44 56 29 23 97 19 hvcurveto
          -134 vlineto
          -19 -18 -24 -10 -27 hhcurveto
          hintmask 1010110011000000
          -37 615 rmoveto
          20 13 13 20 20 13 -13 -20 -20 -13 -13 -20 -20 -13 13 20 vhcurveto
          endchar
        </CharString>
        <CharString name="asciicircum">
          -190 353 -21 379 -20 hstem
          103 332 rmoveto
          137 277 rlineto
          4 hlineto
          139 -277 rlineto
          62 hlineto
          -184 379 rlineto
          -36 hlineto
          -185 -379 rlineto
          endchar
        </CharString>
        <CharString name="asciitilde">
          -107 223 84 -31 83 hstemhm
          hintmask 10000000
          100 223 rmoveto
          hintmask 01000000
          31 9 14 22 45 hhcurveto
          hintmask 10000000
          73 70 -53 71 hhcurveto
          hintmask 01000000
          92 26 84 52 hvcurveto
          -30 hlineto
          hintmask 10000000
          -31 -9 -14 -21 -45 hhcurveto
          hintmask 01000000
          -74 -68 52 -72 hhcurveto
          hintmask 10000000
          -92 -26 -84 -52 hvcurveto
          endchar
        </CharString>
        <CharString name="asterisk">
          -192 435 -21 416 -20 hstemhm
          54 209 -68 68 -43 43 -43 67 -67 207 hintmask 11000010
          294 566 rmoveto
          -29 37 9 -42 43 hhcurveto
          25 19 22 25 58 -75 -11 -37 17 hvcurveto
          -35 16 38 17 rlineto
          33 15 78 -9 57 vvcurveto
          23 -19 24 -26 -44 -6 -43 -28 -41 vhcurveto
          -32 -22 rlineto
          hintmask 11010000
          2 38 rlineto
          hintmask 11000100
          2 40 22 17 28 vvcurveto
          35 -23 16 -23 vhcurveto
          hintmask 11010000
          -24 -22 -16 -35 -27 19 -19 4 -37 hvcurveto
          4 -40 -32 22 rlineto
          28 -41 -6 43 -45 hhcurveto
          hintmask 11100000
          -26 -18 -24 -23 -57 74 10 37 -16 hvcurveto
          38 -17 -35 -16 rlineto
          -35 -16 -77 12 -60 vvcurveto
          -25 19 -22 25 43 7 42 29 39 vhcurveto
          33 25 rlineto
          hintmask 11001000
          -2 -40 rlineto
          -2 -41 -22 -17 -27 vvcurveto
          -36 21 -16 24 25 22 17 34 28 -21 18 -2 37 vhcurveto
          -3 43 rlineto
          endchar
        </CharString>
        <CharString name="at">
          245 -159 53 135 72 -56 56 306 54 128 61 hstemhm
          45 71 106 133 434 77 hintmask 10111111
          447 -159 rmoveto
          96 83 22 38 57 hvcurveto
          -18 43 rlineto
          -33 -56 -61 -17 -80 hhcurveto
          -231 -121 123 189 220 168 163 224 168 113 -91 -167 -136 -75 -94 -68 -24 -12 12 28 14 3 12 4 14 hvcurveto
          81 280 rlineto
          -117 hlineto
          -9 -41 rlineto
          -4 hlineto
          24 -15 -20 17 -49 hhcurveto
          -151 -111 -158 -130 -108 77 -20 45 54 52 29 46 46 hvcurveto
          4 hlineto
          4 -26 7 -25 19 -17 rrcurveto
          hintmask 11011111
          -17 19 28 -6 29 hhcurveto
          147 113 153 154 163 -126 151 -221 -242 -232 -182 -267 -226 165 -134 237 hvcurveto
          -59 258 rmoveto
          -23 -10 18 37 105 78 148 70 24 6 -18 -28 -54 -22 -62 -14 -33 hvcurveto
          -82 -36 -43 -31 -30 hhcurveto
          endchar
        </CharString>
        <CharString name="atilde">
          -54 callgsubr
          72 callsubr
          38 155 -155 -3 callgsubr
          hintmask 1010100100110000
          170 -10 -105 callgsubr
          hintmask 1001100101010000
          -88 callsubr
          vhcurveto
          hintmask 0110010101010000
          -81 callsubr
          -81 579 -50 callgsubr
          hintmask 1010100110010000
          50 19 -39 56 hhcurveto
          68 34 56 -69 callgsubr
          hintmask 1010001010010000
          -50 callsubr
          -51 -94 hvcurveto
          endchar
        </CharString>
        <CharString name="b">
          -17 -10 54 -23 -21 462 78 290 -20 hstemhm
          79 155 218 169 hintmask 10111100
          350 -10 rmoveto
          -9 callgsubr
          361 -22 vlineto
          -217 36 callgsubr
          84 -27 rlineto
          hintmask 01111100
          -731 79 callsubr
          hintmask 10111100
          -30 43 53 -16 54 hhcurveto
          -20 54 49 callgsubr
          -5 callgsubr
        </CharString>
        <CharString name="backslash">
          -297 77 callsubr
          338 -169 rmoveto
          -200 988 rlineto
          -100 hlineto
          201 -988 rlineto
          endchar
        </CharString>
        <CharString name="bar">
          -391 -138 -21 978 -20 hstem
          92 100 vstem
          192 76 callsubr
        </CharString>
        <CharString name="bar.tnum">
          -375 -138 -21 978 -20 hstem
          100 100 vstem
          200 76 callsubr
        </CharString>
        <CharString name="braceleft">
          65 callgsubr
          92 113 -87 87 -87 112 hintmask 11110000
          307 -136 rmoveto
          -4 -11 -12 -2 -13 hhcurveto
          -46 -20 23 54 hvcurveto
          hintmask 11100100
          60 25 130 77 vvcurveto
          71 -21 35 -51 20 vhcurveto
          4 vlineto
          49 19 23 42 71 vvcurveto
          hintmask 11110000
          74 -25 106 55 vvcurveto
          52 23 28 43 10 7 -1 -4 19 vhcurveto
          11 41 rlineto
          hintmask 11100100
          8 -26 -32 5 -30 hhcurveto
          hintmask 11110000
          -89 -49 -45 -82 hvcurveto
          hintmask 11101000
          -60 26 -102 -76 vvcurveto
          -79 -27 -32 -69 vhcurveto
          -41 vlineto
          71 25 -30 -87 hvcurveto
          hintmask 11110000
          -88 -26 -104 -72 vvcurveto
          -88 39 -36 92 32 33 5 9 30 vhcurveto
          endchar
        </CharString>
        <CharString name="braceright">
          65 callgsubr
          110 112 -87 87 -87 113 hintmask 11100100
          22 -180 rmoveto
          -9 30 33 -5 32 hhcurveto
          92 39 36 88 hvcurveto
          hintmask 11110000
          72 -26 104 88 vvcurveto
          87 25 30 71 vhcurveto
          41 vlineto
          -69 -27 32 79 hvcurveto
          hintmask 11100100
          76 26 102 60 vvcurveto
          hintmask 11110000
          82 -49 45 -89 -30 -32 -5 -8 -26 vhcurveto
          11 -41 rlineto
          4 19 7 1 10 hhcurveto
          hintmask 11101000
          43 23 -28 -52 hvcurveto
          hintmask 11110000
          -55 -25 -106 -74 vvcurveto
          -71 23 -42 49 -19 vhcurveto
          -4 vlineto
          -51 -20 -21 -35 -71 vvcurveto
          hintmask 11101000
          -77 25 -130 -60 vvcurveto
          -54 -20 -23 -46 -13 -12 2 4 -11 vhcurveto
          endchar
        </CharString>
        <CharString name="bracketleft">
          -338 -187 49 908 50 hstemhm
          92 117 -117 225 hintmask 11010000
          317 -187 rmoveto
          49 vlineto
          hintmask 11100000
          -108 908 hlineto
          hintmask 11010000
          108 50 -225 -1007 hlineto
          endchar
        </CharString>
        <CharString name="bracketright">
          -338 -187 49 908 50 hstemhm
          20 225 -117 117 hintmask 11100000
          245 -187 rmoveto
          1007 -225 -50 vlineto
          hintmask 11010000
          108 -908 hlineto
          hintmask 11100000
          -108 -49 hlineto
          endchar
        </CharString>
        <CharString name="breve">
          -351 641 104 -104 149 hstemhm
          hintmask 01000000
          10 790 -59 callsubr
          hintmask 10000000
          25 callsubr
          hintmask 01000000
          7 callsubr
        </CharString>
        <CharString name="breve.cap">
          -351 829 104 -104 136 hstemhm
          hintmask 01000000
          10 965 -56 callsubr
          hintmask 10000000
          26 callsubr
          hintmask 01000000
          8 callgsubr
        </CharString>
        <CharString name="brokenbar">
          -391 -150 -21 990 -20 hstem
          94 96 vstem
          190 431 rmoveto
          388 -96 -388 vlineto
          96 -602 rmoveto
          388 -96 -388 vlineto
          endchar
        </CharString>
        <CharString name="bullet">
          -243 257 -21 276 -20 hstem
          72 374 rmoveto
          -76 66 -62 79 79 65 62 76 76 -65 62 -79 -79 -66 -62 -76 vhcurveto
          endchar
        </CharString>
        <CharString name="c">
          23 callsubr
          86 callsubr
          hintmask 10110000
          -86 callgsubr
          hintmask 11010000
          -64 callgsubr
          6 callgsubr
          hvcurveto
          endchar
        </CharString>
        <CharString name="c_t">
          291 -10 72 -72 103 247 200 -52 52 -10 -20 266 53 86 callsubr
          130 105 215 155 -126 126 hintmask 0101011110000000
          -86 callgsubr
          hintmask 1010011101000000
          -30 4 12 -35 50 hhcurveto
          41 26 26 41 38 -25 30 -36 27 hvcurveto
          -30 22 -13 48 56 vvcurveto
          95 46 53 83 74 41 -42 -76 vhcurveto
          hintmask 1000111110000000
          -71 -35 -48 -71 -29 vhcurveto
          6 -30 rlineto
          -35 callgsubr
          -42 20 -43 38 -24 vhcurveto
          -4 vlineto
          hintmask 0110011110000000
          3 -19 -20 2 -21 hhcurveto
          -173 -123 -118 -164 6 callgsubr
          hvcurveto
          endchar
        </CharString>
        <CharString name="cacute">
          23 callsubr
          319 -20 86 callsubr
          hintmask 10111000
          -86 callgsubr
          hintmask 11011000
          -64 callgsubr
          6 callgsubr
          hvcurveto
          -10 641 -101 callsubr
          endchar
        </CharString>
        <CharString name="caron">
          73 callsubr
          630 -93 callsubr
        </CharString>
        <CharString name="caron.alt">
          -544 663 -21 215 -20 hstem
          16 105 vstem
          48 642 -43 callgsubr
        </CharString>
        <CharString name="caron.cap">
          76 callgsubr
          821 -95 callgsubr
        </CharString>
        <CharString name="ccaron">
          -104 -10 103 0 247 148 52 0 90 229 -20 86 callsubr
          hintmask 01101100
          -86 callgsubr
          -64 callgsubr
          hvcurveto
          hintmask 10011100
          6 callgsubr
          vhcurveto
          31 640 -93 callsubr
        </CharString>
        <CharString name="ccedilla">
          -104 61 callgsubr
          49 102 247 200 -52 52 86 callsubr
          125 105 hintmask 11101110
          204 -42 callgsubr
          19 50 91 8 66 47 36 86 rlinecurve
          5 12 -28 22 -7 -8 rlineto
          -43 -37 -51 -23 -60 hhcurveto
          -99 -50 68 128 127 49 72 84 54 13 -36 -47 6 hvcurveto
          hintmask 11110110
          -64 callgsubr
          -148 100 -108 144 -11 hvcurveto
          -49 -125 -44 callsubr
        </CharString>
        <CharString name="ccircumflex">
          23 callsubr
          319 -20 86 callsubr
          hintmask 10111000
          -86 callgsubr
          hintmask 11011000
          -64 callgsubr
          6 callgsubr
          hvcurveto
          34 869 -99 callgsubr
        </CharString>
        <CharString name="cdotaccent">
          23 callsubr
          74 165 86 callsubr
          45 175 hintmask 10111100
          -86 callgsubr
          hintmask 11011100
          -64 callgsubr
          6 callgsubr
          hvcurveto
          -56 706 -103 callgsubr
          endchar
        </CharString>
        <CharString name="cedilla">
          -425 61 callgsubr
          75 -20 hstem
          135 105 vstem
          10 -42 callgsubr
          29 75 rlineto
          -57 hlineto
          -60 -151 -44 callsubr
        </CharString>
        <CharString name="cent">
          -138 75 callgsubr
          43 102 128 42 -42 226 hintmask 11111000
          315 -63 callgsubr
        </CharString>
        <CharString name="cent.tnum">
          -75 75 callgsubr
          72 102 128 42 -42 226 hintmask 11111000
          344 -63 callgsubr
        </CharString>
        <CharString name="circumflex">
          73 callsubr
          859 -99 callgsubr
        </CharString>
        <CharString name="circumflex.cap">
          76 callgsubr
          960 -98 callsubr
        </CharString>
        <CharString name="colon">
          -35 callsubr
        </CharString>
        <CharString name="colon.tnum">
          -35 callsubr
        </CharString>
        <CharString name="comma">
          -398 -138 43 callgsubr
          51 69 callgsubr
          hintmask 11100000
          93 -159 -61 callgsubr
          hintmask 11010000
          -54 callsubr
          endchar
        </CharString>
        <CharString name="comma.tnum">
          -375 -138 43 callgsubr
          63 69 callgsubr
          hintmask 11100000
          105 -159 -61 callgsubr
          hintmask 11010000
          -54 callsubr
          endchar
        </CharString>
        <CharString name="commaaccent">
          -520 -4 callgsubr
          -20 hstemhm
          10 70 callsubr
          hintmask 11100000
          46 -260 rmoveto
          -80 callsubr
          hintmask 11010000
          -73 callsubr
        </CharString>
        <CharString name="copyright">
          211 -10 60 141 39 315 40 -36 -20 191 60 hstemhm
          46 65 134 102 427 66 hintmask 11101111
          46 385 rmoveto
          -217 178 -178 219 219 178 178 217 217 -178 178 -219 -219 -178 -178 -217 vhcurveto
          65 hmoveto
          183 148 152 184 185 146 -152 -183 -183 -146 -152 -185 -184 -148 152 183 vhcurveto
          134 -1 rmoveto
          -114 81 -79 114 46 33 13 29 35 vhcurveto
          23 -41 rlineto
          13 153 -26 hlineto
          -6 -28 -10 -23 -11 -17 rrcurveto
          -31 -20 -28 -16 -35 hhcurveto
          -68 -39 57 103 100 37 55 72 38 25 -15 -38 23 hvcurveto
          12 -20 4 -12 4 -14 rrcurveto
          28 137 -13 hlineto
          hintmask 11011111
          -21 -34 rlineto
          -4 hlineto
          hintmask 11101111
          23 -31 -37 13 -44 hhcurveto
          -111 -84 -84 -117 hvcurveto
          endchar
        </CharString>
        <CharString name="currency">
          -53 145 -21 28 69 292 69 28 -20 hstem
          96 75 280 75 vstem
          188 191 rmoveto
          -26 35 41 -13 47 hhcurveto
          48 41 13 26 34 hvcurveto
          66 -67 54 54 -66 66 rlineto
          25 36 13 42 46 vvcurveto
          47 -13 41 -26 34 vhcurveto
          67 66 -54 54 -65 -66 rlineto
          25 -37 -42 13 -45 hhcurveto
          -47 -43 -14 -25 -33 hvcurveto
          -66 67 -54 -54 67 -65 rlineto
          -26 -35 -13 -41 -47 vvcurveto
          -49 13 -43 26 -32 vhcurveto
          -67 -66 54 -54 rlineto
          189 97 rmoveto
          -76 -64 67 80 79 64 66 76 76 64 -66 -80 -80 -64 -66 -76 hvcurveto
          endchar
        </CharString>
        <CharString name="d">
          -1 -10 80 callsubr
          hstem
          78 callsubr
          vstem
          -94 callsubr
          endchar
        </CharString>
        <CharString name="dagger">
          -180 -115 -21 674 101 -77 77 190 -20 hstemhm
          30 237 -69 69 -38 69 -69 237 hintmask 10110100
          267 -136 rmoveto
          10 224 16 117 33 106 -25 70 -16 78 -10 103 rrcurveto
          hintmask 11010001
          57 callgsubr
          -11 -15 -4 -16 -47 hvcurveto
          -25 -9 -26 -7 -8 -1 rrcurveto
          10 vlineto
          hintmask 11010010
          83 callsubr
          hintmask 11010100
          -30 -19 -21 -34 hvcurveto
          53 callsubr
          16 -42 -15 4 -12 hhcurveto
          hintmask 11011000
          -34 -25 -20 -29 -30 25 -22 33 hvcurveto
          hintmask 10110100
          34 17 24 82 hhcurveto
          -12 -108 -16 -78 -23 -65 32 -105 15 -116 12 -226 rrcurveto
          endchar
        </CharString>
        <CharString name="daggerdbl">
          -149 -116 -21 190 77 -77 101 384 101 -77 77 190 -20 hstemhm
          45 245 -77 77 -54 54 -54 77 -77 245 hintmask 1100111000000000
          341 346 rmoveto
          -25 60 -16 67 -10 89 rrcurveto
          hintmask 1101010000100000
          57 callgsubr
          -12 -10 -2 -18 -51 hvcurveto
          hintmask 1101011000000000
          -25 -9 -26 -7 -8 -1 rrcurveto
          10 vlineto
          hintmask 1101010001000000
          83 callsubr
          hintmask 1101010100000000
          -30 -19 -21 -34 hvcurveto
          hintmask 1101010010000000
          53 callsubr
          17 -43 -14 3 -12 hhcurveto
          hintmask 1101011000000000
          -34 -25 -20 -29 -30 25 -22 33 hvcurveto
          hintmask 1100110010000000
          34 17 24 82 hhcurveto
          -12 -94 -16 -67 -23 -55 23 -55 16 -67 12 -94 rrcurveto
          hintmask 1011011000000000
          -82 -17 24 -34 hhcurveto
          -33 -25 -22 -30 -29 25 -20 34 13 6 1 19 50 hvcurveto
          hintmask 1101010010000000
          18 7 28 9 17 3 rrcurveto
          -12 vlineto
          hintmask 1101010100000000
          -65 -23 -58 -39 vvcurveto
          -34 19 -21 30 vhcurveto
          hintmask 1101010001000000
          32 19 21 34 hvcurveto
          hintmask 1011011000000000
          38 -23 60 64 vvcurveto
          10 vlineto
          8 -1 26 -8 25 -8 rrcurveto
          -17 51 12 -3 13 hhcurveto
          hintmask 1011010000100000
          32 24 21 29 29 -24 22 -33 hvcurveto
          hintmask 1101011000000000
          -35 -17 -24 -82 hhcurveto
          10 89 16 67 25 60 rrcurveto
          endchar
        </CharString>
        <CharString name="dcaron">
          -1 -10 80 callsubr
          47 -20 hstem
          78 callsubr
          60 105 vstem
          -94 callsubr
          344 580 -43 callgsubr
        </CharString>
        <CharString name="dcroat">
          -1 -10 72 424 54 59 85 146 -20 hstem
          37 171 226 147 vstem
          265 -10 rmoveto
          65 58 23 40 41 hvcurveto
          5 -2 rlineto
          -61 18 vlineto
          208 62 rlineto
          21 vlineto
          -79 25 rlineto
          501 79 85 -79 146 -22 vlineto
          -218 36 callgsubr
          85 -28 rlineto
          -46 -113 -85 113 -84 vlineto
          17 -38 -40 8 -38 hhcurveto
          -161 -112 -116 -168 -153 100 -113 128 hvcurveto
          -71 callgsubr
          endchar
        </CharString>
        <CharString name="ddotbelow">
          -1 -13 callgsubr
          85 80 callsubr
          hstem
          37 171 35 175 8 155 vstem
          -94 callsubr
          -86 -240 -103 callgsubr
          endchar
        </CharString>
        <CharString name="degree">
          -353 587 56 132 55 hstem
          40 56 130 56 vstem
          161 -18 callsubr
        </CharString>
        <CharString name="degree.tnum">
          -363 587 56 132 55 hstem
          35 56 130 56 vstem
          156 -18 callsubr
        </CharString>
        <CharString name="dieresis">
          -285 637 143 hstem
          10 81 callsubr
          vstem
          10 708 -90 callgsubr
        </CharString>
        <CharString name="dieresis.cap">
          -304 829 136 hstem
          10 82 callgsubr
          vstem
          10 896 -86 callsubr
        </CharString>
        <CharString name="divide">
          -173 82 165 60 65 66 165 hstem
          163 174 vstem
          163 -29 callgsubr
        </CharString>
        <CharString name="divide.tnum">
          -75 82 165 60 65 66 165 hstem
          205 174 vstem
          205 -29 callgsubr
        </CharString>
        <CharString name="dollar">
          -110 56 callgsubr
          42 145 72 60 76 132 vstem
          319 37 callgsubr
          106 -50 111 -68 callsubr
        </CharString>
        <CharString name="dollar.tnum">
          -75 56 callgsubr
          57 145 72 60 76 132 vstem
          334 37 callgsubr
          107 -50 110 -68 callsubr
        </CharString>
        <CharString name="dotaccent">
          -480 614 165 hstem
          10 175 vstem
          10 696 -103 callgsubr
          endchar
        </CharString>
        <CharString name="dotaccent.cap">
          -511 830 136 hstem
          10 144 vstem
          10 898 -63 callsubr
        </CharString>
        <CharString name="dotbelow">
          -480 -13 callgsubr
          hstem
          10 175 vstem
          10 -178 -103 callgsubr
          endchar
        </CharString>
        <CharString name="dotlessi">
          13 callsubr
          hstem
          109 155 vstem
          264 55 -91 callsubr
          endchar
        </CharString>
        <CharString name="dotlessj">
          -345 -14 callgsubr
          636 -20 hstemhm
          96 155 hintmask 10110000
          96 -48 rmoveto
          -58 callgsubr
          hintmask 01110000
          -94 callgsubr
          endchar
        </CharString>
        <CharString name="e">
          -41 callsubr
          hstem
          36 166 210 162 vstem
          -107 callgsubr
          endchar
        </CharString>
        <CharString name="eacute">
          -41 callsubr
          319 -20 hstem
          36 166 210 162 vstem
          -107 callgsubr
          -28 142 -101 callsubr
          endchar
        </CharString>
        <CharString name="ebreve">
          -41 callsubr
          101 104 -104 149 hstemhm
          36 166 210 162 hintmask 11101110
          -107 callgsubr
          -139 301 -59 callsubr
          hintmask 11110110
          25 callsubr
          hintmask 11101110
          7 callsubr
        </CharString>
        <CharString name="ecaron">
          -41 callsubr
          0 90 229 -20 hstemhm
          36 166 210 162 hintmask 11101110
          -107 callgsubr
          hintmask 11011110
          7 141 -93 callsubr
        </CharString>
        <CharString name="ecircumflex">
          -41 callsubr
          319 -20 hstem
          36 166 210 162 vstem
          -107 callgsubr
          14 370 -99 callgsubr
        </CharString>
        <CharString name="edieresis">
          -41 callsubr
          97 143 hstemhm
          36 166 -53 81 callsubr
          -107 162 hintmask 11111001
          -107 callgsubr
          hintmask 11110110
          -174 219 -90 callgsubr
        </CharString>
        <CharString name="edotaccent">
          -41 callsubr
          74 165 hstem
          36 166 35 175 0 162 vstem
          -107 callgsubr
          -86 207 -103 callgsubr
          endchar
        </CharString>
        <CharString name="edotbelow">
          -71 -13 callgsubr
          85 103 197 51 148 51 hstem
          36 166 35 175 0 162 vstem
          -107 callgsubr
          -86 -667 -103 callgsubr
          endchar
        </CharString>
        <CharString name="egrave">
          -41 callsubr
          319 -20 hstem
          36 166 210 162 vstem
          -107 callgsubr
          78 153 -81 callgsubr
          endchar
        </CharString>
        <CharString name="eight">
          -53 -10 60 670 60 hstemhm
          48 45 callsubr
          410 -65 callgsubr
        </CharString>
        <CharString name="eight.denominator">
          -188 -7 42 433 41 hstemhm
          32 -45 callsubr
          hintmask 11011000
          327 289 -96 callgsubr
        </CharString>
        <CharString name="eight.numerator">
          -188 267 42 433 41 hstemhm
          32 -45 callsubr
          hintmask 11011000
          327 563 -96 callgsubr
        </CharString>
        <CharString name="eight.oldstyle">
          -86 -10 60 648 60 hstemhm
          45 155 -136 149 171 143 -131 146 hintmask 11011000
          417 428 rmoveto
          66 34 44 66 67 vvcurveto
          95 -94 68 -132 -141 -96 -78 -115 -73 38 -58 88 -64 vhcurveto
          hintmask 11100100
          -94 -43 -51 -65 -78 vvcurveto
          -111 105 -83 139 148 105 93 131 86 -46 79 -79 49 vhcurveto
          -80 33 rmoveto
          hintmask 11011000
          -86 45 -38 46 57 vvcurveto
          54 33 35 51 54 33 -41 -68 -51 -17 -47 -30 -30 vhcurveto
          -69 -123 rmoveto
          hintmask 11100100
          88 -53 40 -56 -70 vvcurveto
          -67 -36 -42 -58 -64 -38 51 86 69 24 54 44 28 vhcurveto
          endchar
        </CharString>
        <CharString name="eight.tnum">
          -75 -10 60 670 60 hstemhm
          34 45 callsubr
          396 -65 callgsubr
        </CharString>
        <CharString name="eightinferior">
          -188 -162 42 433 41 hstemhm
          32 -45 callsubr
          hintmask 11011000
          327 134 -96 callgsubr
        </CharString>
        <CharString name="eightsuperior">
          -188 412 42 433 41 hstemhm
          32 -45 callsubr
          hintmask 11011000
          327 708 -96 callgsubr
        </CharString>
        <CharString name="ellipsis">
          205 -10 174 hstem
          50 180 120 180 120 180 cntrmask 01110000
          50 76 rmoveto
          -75 callsubr
          300 hmoveto
          -75 callsubr
          300 hmoveto
          -75 callsubr
          endchar
        </CharString>
        <CharString name="emacron">
          -41 callsubr
          154 96 hstem
          36 166 210 162 vstem
          -107 callgsubr
          164 205 -36 callgsubr
        </CharString>
        <CharString name="emdash">
          387 213 77 hstem
          991 213 rmoveto
          77 -920 -77 vlineto
          endchar
        </CharString>
        <CharString name="endash">
          66 213 77 hstem
          670 213 rmoveto
          77 -599 -77 vlineto
          endchar
        </CharString>
        <CharString name="eng">
          -14 24 callsubr
          450 90 hstemhm
          102 155 179 155 hintmask 10111100
          257 55 rmoveto
          357 vlineto
          26 22 25 12 34 hhcurveto
          42 32 -18 -33 14 hvcurveto
          8 -18 2 -24 -78 vvcurveto
          -327 vlineto
          -58 callgsubr
          hintmask 01111100
          36 -18 -17 12 -31 hhcurveto
          -41 -26 -24 -38 -61 71 -41 106 98 64 35 79 46 hvcurveto
          30 53 12 49 99 vvcurveto
          263 vlineto
          89 -3 27 -12 26 vhcurveto
          51 -25 -50 29 -65 hhcurveto
          -67 -72 -29 -45 -45 hvcurveto
          74 -22 vlineto
          -204 -49 rlineto
          -23 vlineto
          76 -28 rlineto
          -385 -19 callgsubr
          endchar
        </CharString>
        <CharString name="eogonek">
          -71 -256 75 171 103 197 51 148 51 hstem
          36 166 37 113 60 162 vstem
          456 64 callsubr
          38 47 22 44 52 36 hvcurveto
          50 34 52 37 24 57 5 12 rcurveline
          -28 24 -7 -8 rlineto
          -44 -39 -65 -22 -60 hhcurveto
          -102 -53 64 133 -1 hvcurveto
          364 hlineto
          8 6 rlineto
          160 -5 -81 84 -152 hhcurveto
          -178 -122 -115 -168 -159 110 -108 161 15 10 1 1 10 hvcurveto
          44 callsubr
          -148 691 20 callsubr
        </CharString>
        <CharString name="equal">
          -129 231 63 98 63 hstem
          478 27 callsubr
        </CharString>
        <CharString name="equal.tnum">
          -75 231 63 98 63 hstem
          505 27 callsubr
        </CharString>
        <CharString name="eth">
          -68 -10 60 347 75 308 -20 hstem
          36 164 195 164 vstem
          483 713 rmoveto
          -44 61 -106 -75 -50 32 -57 27 -64 22 rlinecurve
          -33 -50 49 -26 42 -28 35 -32 rlinecurve
          -99 -69 43 -62 108 76 40 -51 24 -57 10 -61 rlinecurve
          33 -24 -45 19 -55 hhcurveto
          -128 -93 -100 -136 -146 107 -100 144 148 124 109 194 142 -57 123 -106 93 hvcurveto
          -102 -601 rmoveto
          -58 -36 65 104 109 39 69 62 34 31 -20 -34 17 hvcurveto
          8 -30 4 -38 -37 vvcurveto
          -116 -39 -72 -62 vhcurveto
          endchar
        </CharString>
        <CharString name="etilde">
          -41 callsubr
          72 callsubr
          36 166 210 162 hintmask 1110101110000000
          -107 callgsubr
          -124 174 -50 callgsubr
          hintmask 1111001110000000
          50 19 -39 56 hhcurveto
          68 34 56 -69 callgsubr
          hintmask 1110010110000000
          -50 callsubr
          -51 -94 hvcurveto
          endchar
        </CharString>
        <CharString name="exclam">
          -348 -10 165 625 -20 hstemhm
          73 181 -121 61 hintmask 11010000
          194 230 rmoveto
          77 11 84 20 95 vhcurveto
          hintmask 11100000
          22 106 7 51 51 vvcurveto
          46 -26 40 -64 -57 -34 -38 -51 -45 7 -54 21 -103 vhcurveto
          hintmask 11010000
          20 -97 12 -84 -78 vvcurveto
          -57 -158 -103 callgsubr
          endchar
        </CharString>
        <CharString name="exclamdown">
          -374 -239 -21 635 165 hstemhm
          60 181 -121 61 hintmask 11010000
          120 300 rmoveto
          -73 -7 -55 -25 -131 vhcurveto
          hintmask 11100000
          -19 -98 -9 -66 -36 vvcurveto
          -67 31 -34 62 60 28 32 69 38 -8 55 -21 110 vhcurveto
          hintmask 11010000
          -25 128 -6 52 76 vvcurveto
          57 158 rmoveto
          48 -37 34 -51 -51 -36 -34 -48 -48 36 -35 50 51 38 35 48 vhcurveto
          endchar
        </CharString>
        <CharString name="f">
          -253 21 -21 483 60 callgsubr
          87 callgsubr
          hintmask 11011000
          14 483 rmoveto
          102 -428 hlineto
          -6 callgsubr
          31 14 -14 -38 10 hvcurveto
          hintmask 11101000
          53 callgsubr
          -110 -92 -50 -77 -33 hvcurveto
          -14 -31 -3 -34 -108 vvcurveto
          -88 hlineto
          endchar
        </CharString>
        <CharString name="f_b">
          400 75 callsubr
          266 18 callgsubr
          218 169 hintmask 1001011110000000
          -41 callgsubr
          137 vlineto
          hintmask 1000111110000000
          22 47 rlineto
          -159 -25 callgsubr
          62 36 -33 -67 hvcurveto
          -676 79 callsubr
          hintmask 0101011110000000
          -30 43 53 -16 54 hhcurveto
          -9 callgsubr
          258 17 callsubr
          hintmask 1000111110000000
          7 callgsubr
          hintmask 1001011110000000
          -24 callgsubr
          716 9 49 callgsubr
          hintmask 1010011110000000
          -5 callgsubr
        </CharString>
        <CharString name="f_f">
          127 21 -21 483 47 136 164 -103 53 -1 51 24 callgsubr
          hintmask 11001110
          -11 callgsubr
          225 -428 vlineto
          -6 callgsubr
          hintmask 11010110
          31 14 -14 -38 10 hvcurveto
          hintmask 11100110
          53 callgsubr
          -81 -71 -27 -45 -45 hvcurveto
          hintmask 11010110
          14 -36 -46 8 -53 hhcurveto
          -138 -106 -55 -92 -39 hvcurveto
          -10 -23 -5 -24 -2 -56 rrcurveto
          -88 hlineto
          243 hmoveto
          79 2 28 10 24 vhcurveto
          43 17 42 23 45 hhcurveto
          53 54 -34 -68 4 hvcurveto
          -2 -24 0 -31 -40 vvcurveto
          endchar
        </CharString>
        <CharString name="f_f_b">
          780 75 callsubr
          217 53 -4 18 callgsubr
          225 155 218 169 hintmask 0101010111100000
          1147 -10 rmoveto
          -9 callgsubr
          258 vlineto
          hintmask 1010001111100000
          61 -89 41 -130 -106 -86 -27 -49 -56 vhcurveto
          hintmask 1000110111100000
          17 -37 -55 -6 callsubr
          hintmask 1001010111100000
          -24 callgsubr
          -35 343 35 vlineto
          -103 20 rlineto
          428 225 -428 vlineto
          -46 callsubr
          343 35 vlineto
          -103 20 rlineto
          428 225 -483 79 callsubr
          hintmask 0100110111100000
          -30 43 53 -16 54 hhcurveto
          -876 540 rmoveto
          67 callgsubr
          67 callsubr
          70 37 -47 -73 hvcurveto
          -77 vlineto
          155 hmoveto
          34 vlineto
          94 2 29 10 23 vhcurveto
          hintmask 1000101111100000
          21 callgsubr
          vlineto
          251 -486 49 callgsubr
          hintmask 1010010111100000
          -5 callgsubr
        </CharString>
        <CharString name="f_f_h">
          787 21 -21 454 76 -47 47 10 -20 207 53 -4 53 hstemhm
          87 callgsubr
          224 -24 callsubr
          184 155 hintmask 1010011111000000
          -41 callgsubr
          224 -428 vlineto
          -46 callsubr
          343 35 vlineto
          -103 20 rlineto
          428 155 vlineto
          14 47 rlineto
          -169 -25 callgsubr
          62 36 -33 -67 hvcurveto
          -621 -19 callgsubr
          -70 20 rlineto
          364 vlineto
          hintmask 1100101111000000
          -87 callsubr
          hintmask 1001101111000000
          -28 callgsubr
          248 vlineto
          hintmask 1100011111000000
          61 -89 41 -130 -106 -86 -27 -49 -55 vhcurveto
          hintmask 1100101111000000
          17 -38 -54 -6 callsubr
          hintmask 1010101111000000
          -24 callgsubr
          240 495 rmoveto
          67 callgsubr
          67 callsubr
          68 38 -45 -71 hvcurveto
          -81 vlineto
          endchar
        </CharString>
        <CharString name="f_f_i">
          453 21 -21 483 47 20 -20 102 197 -102 53 -4 53 -5 callsubr
          hintmask 1101001110000000
          -11 callgsubr
          226 -428 vlineto
          -46 callsubr
          343 35 vlineto
          -103 20 rlineto
          428 140 vlineto
          85 -42 rlineto
          -386 23 callgsubr
          hintmask 1010011110000000
          495 -23 vlineto
          -217 -20 rlineto
          -140 34 hlineto
          92 2 29 10 25 vhcurveto
          42 16 43 24 64 hhcurveto
          48 12 -10 -60 23 hvcurveto
          hintmask 1101001110000000
          9 callsubr
          -102 -86 -28 -49 -55 hvcurveto
          hintmask 1100101110000000
          18 -37 -55 10 -65 hhcurveto
          -130 -108 -34 callgsubr
          243 hmoveto
          66 callsubr
          69 30 -42 -80 11 hvcurveto
          -1 -20 -1 -24 -31 vvcurveto
          endchar
        </CharString>
        <CharString name="f_f_j">
          436 24 callsubr
          483 47 20 -20 102 197 -102 53 -4 53 -5 callsubr
          hintmask 1011010011100000
          3 callgsubr
          140 vlineto
          85 -42 rlineto
          -489 vlineto
          -58 callgsubr
          hintmask 0110100111100000
          -36 callsubr
          hintmask 1011010011100000
          9 callsubr
          -102 -86 -28 -49 -55 hvcurveto
          hintmask 1011001011100000
          18 -37 -55 10 -65 hhcurveto
          -130 -108 -34 callgsubr
          -24 callgsubr
          240 495 rmoveto
          66 callsubr
          70 38 -42 -79 hvcurveto
          -76 vlineto
          endchar
        </CharString>
        <CharString name="f_f_k">
          770 21 -21 483 47 197 53 -4 53 -5 callsubr
          hintmask 11011110
          3 callgsubr
          156 vlineto
          12 47 rlineto
          -168 -25 callgsubr
          66 32 -36 -75 hvcurveto
          -610 vlineto
          -46 callsubr
          327 35 vlineto
          -87 20 rlineto
          136 vlineto
          52 54 143 -245 rlineto
          232 35 hlineto
          -82 20 -190 296 86 87 33 33 14 11 89 13 rlinecurve
          35 -275 -35 vlineto
          -39 callgsubr
          hintmask 11101110
          464 vlineto
          hintmask 11011110
          61 -89 41 -130 -106 -87 -27 -50 -55 vhcurveto
          hintmask 11101110
          18 -38 -54 10 -65 0 callsubr
          -24 callgsubr
          240 495 rmoveto
          67 callgsubr
          67 callsubr
          70 38 -47 -73 hvcurveto
          -77 vlineto
          endchar
        </CharString>
        <CharString name="f_f_l">
          455 21 -21 483 47 197 53 -4 18 callgsubr
          225 155 cntrmask 00001110
          hintmask 11101110
          -41 callgsubr
          225 -428 vlineto
          0 callgsubr
          hintmask 11011110
          61 -89 41 -130 -106 -86 -27 -49 -56 vhcurveto
          hintmask 11101110
          17 -37 -55 -6 callsubr
          -24 callgsubr
          620 529 rmoveto
          94 2 29 10 23 vhcurveto
          hintmask 11011110
          21 callgsubr
          -225 vlineto
          -380 hmoveto
          67 callgsubr
          hintmask 11101110
          67 callsubr
          70 28 -48 -72 11 hvcurveto
          -1 -19 -1 -26 -32 vvcurveto
          endchar
        </CharString>
        <CharString name="f_f_t">
          512 0 62 -51 -21 493 47 136 164 -103 53 -1 51 -5 callsubr
          hintmask 0111001110000000
          1022 74 callgsubr
          hintmask 1010011110000000
          -32 callsubr
          hintmask 1010101110000000
          37 8 -19 -33 10 hvcurveto
          hintmask 1011001110000000
          -33 10 18 -28 42 hhcurveto
          41 28 27 38 60 -70 39 -102 -85 -71 -27 -45 -45 hvcurveto
          hintmask 1010101110000000
          14 -35 -48 8 -51 hhcurveto
          -141 -112 -62 -85 -32 hvcurveto
          -9 -23 -6 -36 -1 -44 rrcurveto
          -88 hlineto
          -24 callgsubr
          -35 343 35 vlineto
          -103 20 rlineto
          428 226 -428 vlineto
          15 callsubr
          hintmask 0110101110000000
          -18 25 39 -10 43 hhcurveto
          -751 540 rmoveto
          79 3 29 9 23 vhcurveto
          43 17 37 23 53 hhcurveto
          64 32 -33 -77 12 hvcurveto
          -1 -22 0 -29 -36 vvcurveto
          endchar
        </CharString>
        <CharString name="f_h">
          408 21 -21 454 76 -47 47 10 -20 256 18 callgsubr
          184 155 hintmask 10101111
          -41 callgsubr
          164 vlineto
          16 47 rlineto
          -180 -25 callgsubr
          62 36 -33 -67 hvcurveto
          -621 -19 callgsubr
          -70 20 rlineto
          364 vlineto
          hintmask 11001111
          -87 callsubr
          hintmask 10011111
          -28 callgsubr
          248 17 callsubr
          hintmask 11001111
          7 callgsubr
          hintmask 10101111
          -24 callgsubr
          endchar
        </CharString>
        <CharString name="f_i">
          72 21 -21 483 47 20 -20 102 197 -53 18 callgsubr
          hintmask 11010110
          -11 callgsubr
          140 vlineto
          85 -42 rlineto
          -386 23 callgsubr
          hintmask 10101110
          495 -21 vlineto
          -219 -20 rlineto
          -140 34 hlineto
          94 2 29 10 23 vhcurveto
          44 18 42 22 55 hhcurveto
          47 27 -23 -47 17 hvcurveto
          hintmask 11010110
          -49 18 32 -25 41 hhcurveto
          46 32 30 44 74 -92 49 -138 -146 -110 -55 -92 -39 hvcurveto
          7 callgsubr
          endchar
        </CharString>
        <CharString name="f_j">
          55 24 callsubr
          483 47 20 -20 102 197 -53 18 callgsubr
          hintmask 1011010110000000
          -41 callgsubr
          140 vlineto
          85 -42 rlineto
          -489 vlineto
          -58 callgsubr
          hintmask 0110101110000000
          -36 callsubr
          hintmask 1011010110000000
          9 callsubr
          -144 -111 -56 -91 -39 hvcurveto
          7 callgsubr
          -24 callgsubr
          endchar
        </CharString>
        <CharString name="f_k">
          389 21 -21 483 47 246 53 hstem
          5 callgsubr
          vstem
          -41 callgsubr
          177 vlineto
          10 47 rlineto
          -187 -25 callgsubr
          66 32 -36 -75 hvcurveto
          -610 vlineto
          -46 callsubr
          327 35 vlineto
          -87 20 rlineto
          136 vlineto
          52 54 143 -245 rlineto
          232 35 hlineto
          -82 20 -190 296 86 87 33 33 14 11 89 13 rlinecurve
          35 -275 -35 vlineto
          -39 callgsubr
          464 17 callsubr
          7 callgsubr
          -24 callgsubr
          endchar
        </CharString>
        <CharString name="f_l">
          75 21 -21 483 47 246 53 hstem
          5 callgsubr
          vstem
          14 483 rmoveto
          102 -428 hlineto
          0 callgsubr
          61 -89 41 -130 -149 -110 -54 -93 -40 vhcurveto
          7 callgsubr
          243 34 rmoveto
          94 2 29 10 23 vhcurveto
          21 callgsubr
          -225 vlineto
          endchar
        </CharString>
        <CharString name="f_t">
          131 0 62 -51 -21 493 47 136 164 -51 51 24 callgsubr
          hintmask 01110110
          641 74 callgsubr
          hintmask 10101110
          -32 callsubr
          37 8 -19 -33 10 hvcurveto
          hintmask 10110110
          -22 7 14 -39 49 hhcurveto
          41 28 27 38 60 -71 39 -99 -116 -95 -53 -74 -30 hvcurveto
          -13 -31 -3 -44 -98 vvcurveto
          -88 hlineto
          -14 -47 rlineto
          102 -428 hlineto
          15 callsubr
          hintmask 01110110
          -18 25 39 -10 43 hhcurveto
          endchar
        </CharString>
        <CharString name="five">
          -117 45 callgsubr
          382 134 hintmask 10111100
          196 -53 callgsubr
        </CharString>
        <CharString name="five.denominator">
          -247 -7 45 -45 136 96 104 69 2 callgsubr
          398 -57 callsubr
          29 6 26 -59 callgsubr
          63 -123 -18 -23 -4 -6 -18 hvcurveto
          endchar
        </CharString>
        <CharString name="five.numerator">
          -247 267 45 -45 136 96 104 69 2 callgsubr
          672 -57 callsubr
          29 6 26 -59 callgsubr
          63 -123 -18 -23 -4 -6 -18 hvcurveto
          endchar
        </CharString>
        <CharString name="five.oldstyle">
          -203 -211 60 -60 117 494 120 44 -20 hstemhm
          286 154 hintmask 10111000
          194 400 rmoveto
          185 hlineto
          46 153 -37 11 -30 -44 rlineto
          -211 hlineto
          -63 -362 rlineto
          135 -24 67 -59 -95 vvcurveto
          -77 -46 -54 -67 vhcurveto
          hintmask 01111000
          -64 -14 57 -43 hhcurveto
          -25 -19 -19 -27 -44 52 -27 83 171 126 109 147 123 -94 105 -168 32 hvcurveto
          endchar
        </CharString>
        <CharString name="five.tnum">
          -75 45 callgsubr
          406 134 hintmask 10111100
          220 -53 callgsubr
        </CharString>
        <CharString name="fiveeighths">
          404 -7 42 -14 -21 267 45 -45 136 65 41 -10 104 69 96 2 -20 52 -20 hstemhm
          306 116 195 -45 callsubr
          hintmask 0110100111011000
          345 -12 callsubr
          hintmask 1010101011100100
          -82 callsubr
          hintmask 1010101011011000
          -78 callsubr
          hintmask 1010011011100100
          -72 callsubr
          -603 448 -57 callsubr
          29 6 26 hhcurveto
          64 44 -39 -55 -55 -36 -38 -55 hvcurveto
          hintmask 1001011011101000
          -86 36 91 -71 hhcurveto
          -35 -26 -21 -29 -49 67 -37 92 132 98 78 105 90 -80 63 -123 -18 -23 -4 -6 -18 hvcurveto
          endchar
        </CharString>
        <CharString name="fiveinferior">
          -247 -161 45 -45 136 96 103 70 2 callgsubr
          244 -57 callsubr
          22 6 33 -59 callgsubr
          62 -123 -18 -23 -3 -6 -18 hvcurveto
          endchar
        </CharString>
        <CharString name="fivesuperior">
          -247 412 45 -45 136 96 103 70 2 callgsubr
          817 -57 callsubr
          22 6 33 -59 callgsubr
          62 -123 -18 -23 -3 -6 -18 hvcurveto
          endchar
        </CharString>
        <CharString name="florin">
          95 -191 52 -52 164 460 60 callgsubr
          hintmask 10110000
          204 433 rmoveto
          91 hlineto
          -65 -412 rlineto
          -107 -17 -33 -53 -49 hhcurveto
          -24 -10 9 55 -20 hvcurveto
          hintmask 01101000
          32 -12 -18 16 -27 hhcurveto
          -44 -30 -29 -42 -58 58 -35 97 170 98 106 223 35 hvcurveto
          46 295 rlineto
          132 hlineto
          11 47 rlineto
          -135 hlineto
          9 55 rlineto
          163 26 28 31 51 hhcurveto
          32 13 -12 -40 5 hvcurveto
          hintmask 10110000
          -40 5 23 -21 34 hhcurveto
          41 30 31 43 56 -56 34 -94 -114 -102 -50 -77 -42 hvcurveto
          -21 -40 -6 -19 -17 -114 rrcurveto
          -88 hlineto
          endchar
        </CharString>
        <CharString name="four">
          -76 21 -21 192 98 490 -20 hstem
          307 155 vstem
          307 -27 callsubr
        </CharString>
        <CharString name="four.denominator">
          -214 0 43 callsubr
          42 -29 callsubr
          hintmask 01110000
          -1 callsubr
          endchar
        </CharString>
        <CharString name="four.numerator">
          -216 274 189 -66 66 320 -20 hstemhm
          224 137 hintmask 10110000
          224 316 -29 callsubr
          hintmask 01110000
          -1 callsubr
          endchar
        </CharString>
        <CharString name="four.oldstyle">
          -98 -160 -21 191 98 432 -20 hstem
          297 155 vstem
          297 -181 rmoveto
          155 191 103 98 -103 422 hlineto
          -80 10 -373 -472 18 -58 rlineto
          280 hlineto
          98 vmoveto
          -186 hlineto
          -1 4 183 229 87 callsubr
        </CharString>
        <CharString name="four.tnum">
          -75 21 -21 192 98 490 -20 hstem
          327 155 vstem
          327 -27 callsubr
        </CharString>
        <CharString name="fourinferior">
          -214 -155 43 callsubr
          -113 -29 callsubr
          hintmask 01110000
          -72 callgsubr
          161 87 callsubr
        </CharString>
        <CharString name="foursuperior">
          -215 419 189 -66 66 165 -20 175 -20 hstemhm
          224 137 hintmask 10111000
          224 461 -29 callsubr
          hintmask 01111000
          -72 callgsubr
          161 87 callsubr
        </CharString>
        <CharString name="fraction">
          -395 21 35 callgsubr
          hstem
          -40 hmoveto
          54 callsubr
        </CharString>
        <CharString name="g">
          11 callgsubr
          -8 callgsubr
          140 158 -74 114 hintmask 11001001
          239 -259 -70 callgsubr
          hintmask 10110010
          -44 callgsubr
          hintmask 11010001
          -2 callsubr
          hintmask 10110010
          -2 callgsubr
          hintmask 11000110
          -67 callgsubr
          hintmask 11010001
          -95 callsubr
          hintmask 11000110
          -39 callsubr
          endchar
        </CharString>
        <CharString name="gbreve">
          11 callgsubr
          25 104 -104 149 -8 callgsubr
          140 158 -74 114 hintmask 1101001001000000
          239 -259 -70 callgsubr
          hintmask 1011010010000000
          -44 callgsubr
          hintmask 1101010001000000
          -2 callsubr
          hintmask 1011010010000000
          -2 callgsubr
          hintmask 1101000110000000
          -67 callgsubr
          hintmask 1101010001000000
          -95 callsubr
          hintmask 1100100110000000
          -39 callsubr
          -142 551 -59 callsubr
          hintmask 1101010010000000
          25 callsubr
          hintmask 1100110010000000
          7 callsubr
        </CharString>
        <CharString name="gcircumflex">
          11 callgsubr
          243 -20 -8 callgsubr
          140 158 -74 114 hintmask 1101010010000000
          239 -259 -70 callgsubr
          hintmask 1011100100000000
          -44 callgsubr
          hintmask 1101100010000000
          -2 callsubr
          hintmask 1011100100000000
          -2 callgsubr
          hintmask 1101001100000000
          -67 callgsubr
          hintmask 1101100010000000
          -95 callsubr
          hintmask 1101001100000000
          -39 callsubr
          12 620 -99 callgsubr
        </CharString>
        <CharString name="gcommaaccent">
          11 callgsubr
          -76 111 209 -20 -8 callgsubr
          14 88 -88 135 -9 158 -74 114 hintmask 1001110001010000
          326 860 rmoveto
          -63 -28 -36 -47 -56 vvcurveto
          -48 26 -30 42 39 28 23 30 vhcurveto
          hintmask 1100101010010000
          43 -47 1 29 vvcurveto
          15 14 24 20 19 vhcurveto
          -110 -1094 -70 callgsubr
          hintmask 1010110010100000
          -44 callgsubr
          hintmask 1100110010010000
          -2 callsubr
          hintmask 1010110010100000
          -2 callgsubr
          hintmask 1100100110100000
          -67 callgsubr
          hintmask 1100110010010000
          -95 callsubr
          hintmask 1100100110100000
          -39 callsubr
          endchar
        </CharString>
        <CharString name="gdotaccent">
          11 callgsubr
          -2 165 -8 callgsubr
          -1 175 -34 158 -74 114 hintmask 1101010101000000
          239 -259 -70 callgsubr
          hintmask 1010100010000000
          -44 callgsubr
          hintmask 1101100101000000
          -2 callsubr
          hintmask 1010100101000000
          -2 callgsubr
          hintmask 1101001010000000
          -67 callgsubr
          hintmask 1101100101000000
          -95 callsubr
          hintmask 1101001010000000
          -39 callsubr
          hintmask 1101100101000000
          -69 457 -103 callgsubr
          endchar
        </CharString>
        <CharString name="germandbls">
          81 0 40 -29 -21 473 47 269 51 hstemhm
          113 155 104 52 44 21 -21 137 -10 135 hintmask 1011111010000000
          23 463 rmoveto
          90 -408 hlineto
          -46 callsubr
          313 35 vlineto
          -73 20 rlineto
          530 vlineto
          148 24 46 77 66 33 -33 -65 vhcurveto
          -112 -96 -85 -107 -158 223 6 -105 vvcurveto
          -47 -31 -33 -44 -57 -34 48 86 -5 vhcurveto
          -43 hlineto
          hintmask 0111111010000000
          6 -163 rlineto
          -13 35 54 -8 48 hhcurveto
          132 74 67 117 hvcurveto
          195 -241 -19 93 vvcurveto
          hintmask 1011110100000000
          66 116 61 110 vvcurveto
          92 -83 58 -132 -120 -101 -50 -77 -35 vhcurveto
          -16 -34 -5 -47 -106 vvcurveto
          -6 -76 vlineto
          endchar
        </CharString>
        <CharString name="grave">
          -494 79 callgsubr
          171 642 -81 callgsubr
          endchar
        </CharString>
        <CharString name="grave.cap">
          -414 838 -21 146 -20 hstem
          251 845 42 callsubr
          -73 callgsubr
        </CharString>
        <CharString name="greater">
          -166 142 -21 440 -20 hstem
          476 4 callgsubr
        </CharString>
        <CharString name="greater.tnum">
          -75 142 -21 440 -20 hstem
          506 4 callgsubr
        </CharString>
        <CharString name="guillemotleft">
          -186 74 -21 383 -20 hstem
          228 68 -11 callsubr
          223 15 -11 callsubr
          endchar
        </CharString>
        <CharString name="guillemotright">
          -186 74 -21 383 -20 hstem
          291 53 -10 callgsubr
          -163 -15 -10 callgsubr
          endchar
        </CharString>
        <CharString name="guilsinglleft">
          -379 74 -21 383 -20 hstem
          228 68 -11 callsubr
          endchar
        </CharString>
        <CharString name="guilsinglright">
          -379 74 -21 383 -20 hstem
          98 53 -10 callgsubr
          endchar
        </CharString>
        <CharString name="h">
          6 21 -21 454 86 290 -20 hstem
          94 155 184 155 vstem
          249 55 rmoveto
          364 vlineto
          -87 callsubr
          -28 callgsubr
          351 10 callgsubr
          -675 -19 callgsubr
          endchar
        </CharString>
        <CharString name="hbar">
          6 21 -21 454 86 59 85 146 -20 hstem
          94 155 184 155 vstem
          249 55 rmoveto
          364 vlineto
          -87 callsubr
          -28 callgsubr
          120 133 85 -133 146 10 callgsubr
          -46 -59 -85 59 -544 -19 callgsubr
          endchar
        </CharString>
        <CharString name="hcircumflex">
          6 21 -21 454 86 290 -20 49 -20 hstem
          94 155 184 155 vstem
          249 55 rmoveto
          364 vlineto
          -87 callsubr
          -28 callgsubr
          351 10 callgsubr
          -675 -19 callgsubr
          113 824 -99 callgsubr
        </CharString>
        <CharString name="hdotbelow">
          6 30 callgsubr
          454 86 290 -20 hstem
          94 155 3 175 6 155 vstem
          249 55 rmoveto
          364 vlineto
          -87 callsubr
          -28 callgsubr
          351 10 callgsubr
          -675 -19 callgsubr
          -67 -213 -103 callgsubr
          endchar
        </CharString>
        <CharString name="hungarumlaut">
          -320 79 callgsubr
          215 631 -101 callsubr
          -143 -11 -101 callsubr
          endchar
        </CharString>
        <CharString name="hungarumlaut.cap">
          -243 837 -21 149 -20 hstem
          31 816 -30 callgsubr
        </CharString>
        <CharString name="hyphen">
          32 callgsubr
        </CharString>
        <CharString name="i">
          -315 21 80 callgsubr
          hstem
          109 155 vstem
          99 697 -103 callgsubr
          165 -642 -91 callsubr
          endchar
        </CharString>
        <CharString name="iacute">
          13 callsubr
          339 -20 hstem
          109 155 vstem
          264 55 -91 callsubr
          -204 596 -101 callsubr
          endchar
        </CharString>
        <CharString name="ibreve">
          13 callsubr
          121 104 -104 149 hstemhm
          109 155 hintmask 11011000
          264 55 -91 callsubr
          -310 755 -59 callsubr
          hintmask 11101000
          25 callsubr
          hintmask 11011000
          7 callsubr
        </CharString>
        <CharString name="icircumflex">
          13 callsubr
          339 -20 hstem
          109 155 vstem
          264 55 -91 callsubr
          -154 824 -99 callgsubr
        </CharString>
        <CharString name="idieresis">
          13 callsubr
          117 143 hstemhm
          1 152 -44 155 -45 152 hintmask 11101000
          264 55 -91 callsubr
          hintmask 11110100
          -343 673 -90 callgsubr
        </CharString>
        <CharString name="idotbelow">
          -315 -260 165 116 80 callgsubr
          hstem
          109 155 vstem
          99 697 -103 callgsubr
          165 -642 -91 callsubr
          -244 -213 -103 callgsubr
          endchar
        </CharString>
        <CharString name="igrave">
          13 callsubr
          339 -20 hstem
          109 155 vstem
          264 55 -91 callsubr
          -83 607 -81 callgsubr
          endchar
        </CharString>
        <CharString name="ij">
          15 24 callsubr
          540 -20 95 165 hstemhm
          109 155 192 155 hintmask 10111110
          99 697 -103 callgsubr
          165 -642 -91 callsubr
          112 -83 rmoveto
          -58 callgsubr
          hintmask 01111110
          -30 callsubr
          77 callgsubr
        </CharString>
        <CharString name="imacron">
          13 callsubr
          174 96 hstem
          31 233 -155 155 vstem
          264 55 -91 callsubr
          -6 659 -36 callgsubr
        </CharString>
        <CharString name="iogonek">
          -315 -256 75 202 80 callgsubr
          hstemhm
          53 113 -57 155 hintmask 11111000
          270 -51 callgsubr
          36 12 41 42 47 hvcurveto
          124 35 hlineto
          hintmask 11110100
          -80 20 rlineto
          485 -21 vlineto
          -219 -33 callgsubr
          85 -27 rlineto
          -386 vlineto
          -46 callsubr
          133 vlineto
          hintmask 11111000
          -70 -53 -34 -63 64 callgsubr
          -186 899 -103 callgsubr
          endchar
        </CharString>
        <CharString name="itilde">
          13 callsubr
          142 12 callsubr
          20 244 hintmask 11010110
          264 55 -91 callsubr
          -285 628 -50 callgsubr
          hintmask 11100110
          50 19 -39 56 hhcurveto
          68 34 56 -69 callgsubr
          hintmask 11001010
          -50 callsubr
          -51 -94 hvcurveto
          endchar
        </CharString>
        <CharString name="j">
          -345 -14 callgsubr
          636 -20 95 165 hstemhm
          96 155 hintmask 10111000
          96 -48 rmoveto
          -58 callgsubr
          hintmask 01111000
          -30 callsubr
          77 callgsubr
        </CharString>
        <CharString name="jcircumflex">
          -345 -14 callgsubr
          636 -20 339 -20 hstemhm
          96 155 hintmask 10111000
          96 -48 rmoveto
          -58 callgsubr
          hintmask 01111000
          -94 callgsubr
          77 418 -99 callgsubr
        </CharString>
        <CharString name="k">
          -7 21 -21 530 -20 320 -20 hstem
          100 155 vstem
          357 495 rmoveto
          -39 callgsubr
          567 -22 vlineto
          -218 36 callgsubr
          85 -27 rlineto
          -676 vlineto
          -46 callsubr
          327 35 vlineto
          -87 20 rlineto
          136 vlineto
          52 54 143 -245 rlineto
          232 35 hlineto
          -82 20 -190 296 86 87 33 33 14 11 89 13 rlinecurve
          35 -275 vlineto
          endchar
        </CharString>
        <CharString name="kcommaaccent">
          -7 -4 callgsubr
          52 530 -20 320 -20 hstemhm
          100 155 44 70 callsubr
          hintmask 11111100
          357 495 rmoveto
          -39 callgsubr
          567 -22 vlineto
          -218 36 callgsubr
          85 -27 rlineto
          -676 vlineto
          -46 callsubr
          327 35 vlineto
          -87 20 rlineto
          136 vlineto
          52 54 143 -245 rlineto
          232 35 hlineto
          -82 20 -190 296 86 87 33 33 14 11 89 13 rlinecurve
          35 -275 vlineto
          -22 -790 rmoveto
          -80 callsubr
          hintmask 11111010
          -73 callsubr
        </CharString>
        <CharString name="kgreenlandic">
          2 21 -21 530 -20 30 -20 hstemhm
          109 155 hintmask 10110000
          366 495 rmoveto
          -39 callgsubr
          277 -22 vlineto
          -218 36 callgsubr
          85 -27 rlineto
          -386 vlineto
          -46 callsubr
          327 35 vlineto
          -87 20 rlineto
          136 vlineto
          52 54 143 -245 rlineto
          232 35 hlineto
          -82 20 -190 296 86 87 33 33 14 11 89 13 rlinecurve
          hintmask 11010000
          35 -275 vlineto
          endchar
        </CharString>
        <CharString name="l">
          -319 21 -21 830 -20 hstem
          102 155 vstem
          257 55 -68 callgsubr
          endchar
        </CharString>
        <CharString name="lacute">
          -319 21 -21 830 -20 150 -20 hstem
          102 155 vstem
          46 816 rmoveto
          152 44 rlineto
          52 15 16 19 23 vvcurveto
          25 -21 18 -22 -16 -13 -5 -11 -15 vhcurveto
          -144 -107 rlineto
          222 -782 -68 callgsubr
          endchar
        </CharString>
        <CharString name="lcaron">
          -319 21 -21 830 -20 47 -20 hstem
          102 155 62 105 vstem
          257 55 -68 callgsubr
          14 607 -43 callgsubr
        </CharString>
        <CharString name="lcommaaccent">
          -319 -4 callgsubr
          52 830 61 callsubr
          -112 88 hintmask 11110000
          257 55 -68 callgsubr
          -203 -295 rmoveto
          hintmask 11101000
          -80 callsubr
          -73 callsubr
        </CharString>
        <CharString name="ldot">
          -213 21 -21 221 174 435 -20 hstem
          102 155 63 180 vstem
          257 55 -68 callgsubr
          -17 272 rmoveto
          -75 callsubr
          endchar
        </CharString>
        <CharString name="less">
          -167 137 -21 440 -20 hstem
          442 4 callsubr
        </CharString>
        <CharString name="less.tnum">
          -75 137 -21 440 -20 hstem
          503 4 callsubr
        </CharString>
        <CharString name="logicalnot">
          -127 137 171 -63 63 hstemhm
          409 71 hintmask 10100000
          409 137 rmoveto
          71 171 -410 hlineto
          hintmask 01100000
          -63 339 vlineto
          endchar
        </CharString>
        <CharString name="lslash">
          -315 21 -21 830 -20 hstemhm
          29 230 -155 155 -155 237 hintmask 11100000
          29 286 rmoveto
          hintmask 11010000
          75 40 rlineto
          -271 23 callgsubr
          353 vlineto
          hintmask 11001000
          82 44 rlineto
          95 vlineto
          hintmask 11100000
          -82 -44 rlineto
          327 -21 vlineto
          -219 -33 callgsubr
          hintmask 11010000
          85 -27 rlineto
          -310 vlineto
          hintmask 11100000
          -75 -40 rlineto
          endchar
        </CharString>
        <CharString name="m">
          333 21 -21 452 88 hstem
          101 155 175 155 175 155 cntrmask 00111000
          256 55 rmoveto
          366 vlineto
          20 21 25 11 30 hhcurveto
          46 30 -19 -34 17 callgsubr
          48 -1 29 -2 21 vhcurveto
          23 22 26 12 31 hhcurveto
          46 30 -19 -33 17 callgsubr
          92 -3 25 -12 25 vhcurveto
          53 -26 -49 27 -67 hhcurveto
          -67 -75 -31 -46 -48 hvcurveto
          51 -27 -48 26 -65 hhcurveto
          -61 -68 -26 -39 -48 hvcurveto
          65 -40 vlineto
          -184 36 callgsubr
          73 -28 rlineto
          -385 -19 callgsubr
          endchar
        </CharString>
        <CharString name="macron">
          -348 694 96 hstem
          317 694 -36 callgsubr
        </CharString>
        <CharString name="macron.cap">
          -348 864 96 hstem
          317 864 -36 callgsubr
        </CharString>
        <CharString name="minus">
          -129 307 65 hstem
          478 307 18 callsubr
        </CharString>
        <CharString name="minus.tnum">
          -75 307 65 hstem
          505 307 18 callsubr
        </CharString>
        <CharString name="mu">
          0 -239 -21 250 52 callgsubr
          hstemhm
          76 116 -116 157 -142 -7 callgsubr
          hintmask 11100110
          416 -58 callsubr
        </CharString>
        <CharString name="multiply">
          -191 175 -21 369 -20 hstem
          58 -17 callgsubr
        </CharString>
        <CharString name="multiply.tnum">
          -75 175 -21 369 -20 hstem
          116 -17 callgsubr
        </CharString>
        <CharString name="n">
          51 callsubr
          hstem
          102 155 179 155 vstem
          257 -104 callsubr
          endchar
        </CharString>
        <CharString name="nacute">
          51 callsubr
          319 -20 hstem
          102 155 179 155 vstem
          257 -104 callsubr
          -25 596 -101 callsubr
          endchar
        </CharString>
        <CharString name="napostrophe">
          29 21 -21 450 90 317 -20 hstemhm
          42 143 -76 76 -63 155 179 155 hintmask 11100110
          277 -104 callsubr
          -270 585 rmoveto
          hintmask 11110010
          47 callsubr
          hintmask 11101010
          58 callgsubr
        </CharString>
        <CharString name="ncaron">
          51 callsubr
          0 90 229 61 callsubr
          179 155 hintmask 11011100
          257 -104 callsubr
          hintmask 10111100
          18 595 -93 callsubr
        </CharString>
        <CharString name="ncommaaccent">
          9 -229 -21 208 42 450 90 hstemhm
          102 155 19 70 callsubr
          25 155 hintmask 11111010
          257 -104 callsubr
          -15 -285 rmoveto
          -80 callsubr
          hintmask 11110110
          -73 callsubr
        </CharString>
        <CharString name="ndotaccent">
          51 callsubr
          74 165 hstem
          102 155 1 175 3 155 vstem
          257 -104 callsubr
          -69 661 -103 callgsubr
          endchar
        </CharString>
        <CharString name="nine">
          -72 11 -21 315 75 337 60 hstem
          29 164 195 169 vstem
          295 -55 callgsubr
        </CharString>
        <CharString name="nine.denominator">
          14 -26 callgsubr
          507 -89 callsubr
        </CharString>
        <CharString name="nine.numerator">
          288 -26 callgsubr
          781 -89 callsubr
        </CharString>
        <CharString name="nine.oldstyle">
          -131 -181 -21 288 82 312 60 hstem
          24 164 152 171 vstem
          271 540 rmoveto
          -144 -103 -98 -137 -125 87 -94 115 47 30 16 36 23 hvcurveto
          4 -2 -21 -129 -78 -93 -147 -75 rlinecurve
          18 -41 rlineto
          257 78 152 174 218 vvcurveto
          169 -91 103 -149 vhcurveto
          -9 -60 rmoveto
          46 32 -71 -103 -36 -4 -30 -8 -33 hvcurveto
          -27 -16 -17 -12 -23 hhcurveto
          -52 -32 59 95 93 30 65 44 hvcurveto
          endchar
        </CharString>
        <CharString name="nine.tnum">
          -75 11 -21 315 75 337 60 hstem
          36 164 195 169 vstem
          302 -55 callgsubr
        </CharString>
        <CharString name="nineinferior">
          -141 -26 callgsubr
          352 -89 callsubr
        </CharString>
        <CharString name="ninesuperior">
          433 -26 callgsubr
          926 -89 callsubr
        </CharString>
        <CharString name="ntilde">
          51 callsubr
          72 callsubr
          102 155 179 155 hintmask 11010111
          257 -104 callsubr
          -105 628 -52 callsubr
        </CharString>
        <CharString name="numbersign">
          -8 52 callsubr
          452 -71 callsubr
        </CharString>
        <CharString name="numbersign.tnum">
          -75 52 callsubr
          417 -71 callsubr
        </CharString>
        <CharString name="o">
          14 callgsubr
          hstem
          36 168 234 168 vstem
          -103 callsubr
          endchar
        </CharString>
        <CharString name="oacute">
          14 callgsubr
          319 -20 hstem
          36 168 234 168 vstem
          -103 callsubr
          96 366 -101 callsubr
          endchar
        </CharString>
        <CharString name="obreve">
          14 callgsubr
          101 104 -104 149 86 callsubr
          234 168 hintmask 11011100
          -103 callsubr
          -34 525 -59 callsubr
          hintmask 11101100
          25 callsubr
          hintmask 11011100
          7 callsubr
        </CharString>
        <CharString name="ocircumflex">
          14 callgsubr
          319 -20 hstem
          36 168 234 168 vstem
          -103 callsubr
          124 594 -99 callgsubr
        </CharString>
        <CharString name="odieresis">
          14 callgsubr
          97 143 86 callsubr
          -67 81 callsubr
          -69 168 hintmask 11110010
          -103 callsubr
          hintmask 11101100
          -67 443 -90 callgsubr
        </CharString>
        <CharString name="odotbelow">
          -33 -13 callgsubr
          85 51 447 52 hstem
          36 168 32 175 27 168 vstem
          -103 callsubr
          32 -443 -103 callgsubr
          endchar
        </CharString>
        <CharString name="oe">
          333 -10 51 -51 103 197 51 147 52 86 callsubr
          234 168 210 162 hintmask 10111110
          978 296 rmoveto
          160 -5 -81 84 -152 hhcurveto
          -88 -73 -28 -48 -53 hvcurveto
          47 -48 -69 29 -88 hhcurveto
          -183 -102 -124 -151 -151 102 -124 183 84 67 26 43 48 hvcurveto
          -44 47 67 -25 81 hhcurveto
          109 95 51 90 37 hvcurveto
          5 12 -28 24 -7 -8 rlineto
          hintmask 01111110
          -44 -39 -66 -22 -58 hhcurveto
          -104 -52 64 133 -1 hvcurveto
          364 hlineto
          -766 -25 rmoveto
          92 18 131 99 99 18 -131 -92 vhcurveto
          hintmask 10111110
          -93 -20 -131 -97 -99 -18 131 93 vhcurveto
          523 224 20 callsubr
        </CharString>
        <CharString name="ogonek">
          -423 -256 75 192 -20 hstem
          10 113 vstem
          227 -51 callgsubr
          39 24 44 50 52 hvcurveto
          -58 hlineto
          -80 -56 -49 -68 -55 -47 callsubr
          endchar
        </CharString>
        <CharString name="ograve">
          14 callgsubr
          319 -20 hstem
          36 168 234 168 vstem
          -103 callsubr
          199 377 -81 callgsubr
          endchar
        </CharString>
        <CharString name="ohungarumlaut">
          14 callgsubr
          319 -20 hstem
          36 168 234 168 vstem
          -103 callsubr
          229 366 -101 callsubr
          -143 -11 -101 callsubr
          endchar
        </CharString>
        <CharString name="omacron">
          14 callgsubr
          154 96 hstem
          36 168 234 168 vstem
          -103 callsubr
          279 429 -36 callgsubr
        </CharString>
        <CharString name="one">
          -220 21 -21 780 -20 hstem
          70 callgsubr
          vstem
          273 -4 callsubr
        </CharString>
        <CharString name="one.denominator">
          -324 21 63 callsubr
          509 -32 callgsubr
        </CharString>
        <CharString name="one.numerator">
          -325 295 63 callsubr
          783 -32 callgsubr
        </CharString>
        <CharString name="one.oldstyle">
          -204 31 callgsubr
          hstem
          182 155 vstem
          296 540 rmoveto
          -75 -69 -66 -32 -111 -19 rrcurveto
          -45 138 -314 vlineto
          -142 -25 rlineto
          -36 426 36 vlineto
          -129 25 rlineto
          471 vlineto
          endchar
        </CharString>
        <CharString name="one.tnum">
          -75 21 -21 780 -20 hstem
          244 155 vstem
          353 -4 callsubr
        </CharString>
        <CharString name="oneeighth">
          392 -7 42 -14 -21 468 41 261 58 callsubr
          335 -45 callsubr
          hintmask 0111011010000000
          337 hmoveto
          -70 callsubr
          hintmask 1010110110000000
          -2 783 -84 callgsubr
          630 -489 -78 callgsubr
          hintmask 1011011001000000
          -82 callsubr
          hintmask 1011010110000000
          -78 callsubr
          hintmask 1011011001000000
          -37 callsubr
        </CharString>
        <CharString name="onehalf">
          379 -2 -21 23 91 353 65 261 -20 33 -20 hstemhm
          137 135 591 148 hintmask 11110110
          335 hmoveto
          -70 callsubr
          hintmask 11101110
          -2 783 -84 callgsubr
          634 -778 rmoveto
          -97 callgsubr
        </CharString>
        <CharString name="oneinferior">
          -278 -134 -21 509 -20 hstem
          142 135 vstem
          234 354 -32 callgsubr
        </CharString>
        <CharString name="onequarter">
          359 0 189 -66 66 581 58 callsubr
          515 137 hintmask 10101100
          376 hmoveto
          -70 callsubr
          hintmask 10011100
          -41 783 -84 callgsubr
          515 -736 -29 callsubr
          hintmask 01101100
          -1 callsubr
          endchar
        </CharString>
        <CharString name="onesuperior">
          -275 440 -21 509 -20 hstem
          143 135 vstem
          235 928 -32 callgsubr
        </CharString>
        <CharString name="onethird">
          367 -7 45 -45 141 -113 -21 240 57 148 64 261 58 callsubr
          563 134 -110 146 hintmask 0011110110000000
          337 hmoveto
          -70 callsubr
          hintmask 1001101101000000
          -2 783 -84 callgsubr
          441 -541 rmoveto
          2 8 20 1 13 hhcurveto
          68 37 -42 -71 -57 -21 -32 -43 hvcurveto
          hintmask 0101110101000000
          -83 callgsubr
          hintmask 1001110110000000
          -92 callsubr
          endchar
        </CharString>
        <CharString name="oogonek">
          -33 -258 75 175 49 447 52 86 callsubr
          -9 113 130 168 hintmask 11101100
          412 -162 rmoveto
          -15 -22 -15 -6 -19 hhcurveto
          -32 -16 19 38 35 11 38 37 45 hvcurveto
          161 14 89 118 141 vvcurveto
          151 -102 124 -183 vhcurveto
          hintmask 11110100
          -183 -102 -124 -151 -143 90 -118 164 -12 hvcurveto
          hintmask 11101100
          -64 -52 -31 -60 -50 -47 callsubr
          hintmask 11110100
          -223 469 rmoveto
          92 18 131 99 99 18 -131 -92 -93 -20 -131 -97 -99 -18 131 93 vhcurveto
          endchar
        </CharString>
        <CharString name="ordfeminine">
          -255 422 45 -45 62 251 45 hstemhm
          51 84 95 92 hintmask 10111000
          137 422 rmoveto
          40 30 19 36 24 hvcurveto
          4 -1 rlineto
          -35 7 26 -19 39 hhcurveto
          33 26 14 30 23 hvcurveto
          -16 15 rlineto
          -10 -10 -7 -4 -10 hhcurveto
          -19 -5 12 42 hvcurveto
          139 vlineto
          56 -1 14 -7 15 vhcurveto
          21 -12 -35 14 -43 hhcurveto
          -32 -34 -6 -14 -27 hvcurveto
          -46 -23 -29 -39 -32 vvcurveto
          -21 14 -15 26 19 20 18 24 vhcurveto
          8 -2 8 7 vvcurveto
          24 25 16 27 32 13 -22 -43 vhcurveto
          -43 vlineto
          -129 -30 -50 -35 -60 vvcurveto
          -48 39 -32 47 vhcurveto
          hintmask 01111000
          45 62 rmoveto
          -19 -18 12 28 30 21 21 64 16 hvcurveto
          -64 vlineto
          -30 -9 -17 -13 -22 hhcurveto
          endchar
        </CharString>
        <CharString name="ordmasculine">
          -251 422 44 269 45 hstem
          41 99 144 99 vstem
          212 780 rmoveto
          -98 -73 -76 -103 -103 73 -76 98 98 73 76 103 103 -73 76 -98 hvcurveto
          -72 -179 rmoveto
          85 26 49 46 46 26 -49 -84 -85 -27 -51 -46 -45 -26 50 85 vhcurveto
          endchar
        </CharString>
        <CharString name="oslash">
          85 callgsubr
          hstemhm
          41 168 234 168 hintmask 10011100
          16 callsubr
          hintmask 01101100
          9 callgsubr
          hintmask 10101100
          -33 callsubr
          endchar
        </CharString>
        <CharString name="oslashacute">
          85 callgsubr
          349 -20 hstemhm
          41 168 234 168 hintmask 10011110
          16 callsubr
          hintmask 01101110
          9 callgsubr
          hintmask 10101110
          -33 callsubr
          2 590 -101 callsubr
          endchar
        </CharString>
        <CharString name="otilde">
          14 callgsubr
          72 callsubr
          36 168 234 168 hintmask 11010111
          -103 callsubr
          -5 398 -52 callsubr
        </CharString>
        <CharString name="p">
          2 -229 -21 240 54 418 78 hstem
          97 155 218 169 vstem
          252 5 rmoveto
          -10 30 29 -5 36 hhcurveto
          177 115 113 174 154 -93 109 -131 -66 -64 -28 -46 -37 hvcurveto
          -5 74 -23 hlineto
          -207 -33 callgsubr
          84 -27 rlineto
          -641 56 callsubr
          97 244 rmoveto
          -53 -44 49 61 hvcurveto
          249 vlineto
          34 16 43 25 41 hhcurveto
          72 46 -78 -124 -128 -49 -88 -72 hvcurveto
          endchar
        </CharString>
        <CharString name="paragraph">
          -40 -87 -21 823 55 hstem
          292 74 69 75 vstem
          366 -10 callsubr
        </CharString>
        <CharString name="paragraph.tnum">
          -75 -87 -21 823 55 hstem
          290 74 69 75 vstem
          364 -10 callsubr
        </CharString>
        <CharString name="parenleft">
          -359 -179 -21 1030 -20 hstem
          37 132 vstem
          272 -177 rmoveto
          -37 75 -66 157 249 vvcurveto
          211 74 219 41 76 vhcurveto
          -26 20 rlineto
          -97 -81 -124 -214 -230 vvcurveto
          -255 116 -160 88 -90 vhcurveto
          endchar
        </CharString>
        <CharString name="parenright">
          -359 -179 -21 1030 -20 hstem
          147 132 vstem
          75 -200 rmoveto
          88 90 116 160 255 vvcurveto
          230 -124 214 -97 81 vhcurveto
          -26 -20 rlineto
          41 -76 74 -219 -211 vvcurveto
          -249 -66 -157 -37 -75 vhcurveto
          endchar
        </CharString>
        <CharString name="percent">
          339 47 callgsubr
          35 46 callgsubr
          239 783 -77 callgsubr
          535 -276 -77 callgsubr
          hintmask 0111011111000000
          -448 -425 rmoveto
          54 callsubr
        </CharString>
        <CharString name="percent.tnum">
          375 47 callgsubr
          53 46 callgsubr
          257 783 -77 callgsubr
          535 -276 -77 callgsubr
          hintmask 0111011111000000
          -448 -425 rmoveto
          54 callsubr
        </CharString>
        <CharString name="period">
          -395 -10 174 hstem
          50 180 vstem
          50 76 rmoveto
          -75 callsubr
          endchar
        </CharString>
        <CharString name="period.tnum">
          -375 -10 174 hstem
          60 180 vstem
          60 76 rmoveto
          -75 callsubr
          endchar
        </CharString>
        <CharString name="periodcentered">
          -378 201 174 hstem
          59 180 vstem
          59 287 rmoveto
          -75 callsubr
          endchar
        </CharString>
        <CharString name="periodcentered.tnum">
          -375 201 174 hstem
          60 180 vstem
          60 287 rmoveto
          -75 callsubr
          endchar
        </CharString>
        <CharString name="perthousand">
          697 -10 42 -11 -21 347 42 -4 41 316 41 -13 -20 hstemhm
          35 150 89 150 94 150 89 150 42 150 89 150 hintmask 1010101111110000
          229 783 -23 callgsubr
          hintmask 1001101111110000
          483 -316 -23 callgsubr
          hintmask 0101011111110000
          -420 -385 rmoveto
          -70 callsubr
          955 426 rmoveto
          -108 -86 -98 -122 hvcurveto
          hintmask 1001101111110000
          -121 85 -95 109 109 86 95 121 121 -87 99 -108 vhcurveto
          -41 vmoveto
          33 12 -34 -145 -145 -12 -29 -33 -32 -12 29 145 145 12 34 32 hvcurveto
          endchar
        </CharString>
        <CharString name="plus">
          -184 155 -21 173 65 172 -20 hstem
          213 67 vstem
          213 134 -34 callsubr
          endchar
        </CharString>
        <CharString name="plus.tnum">
          -75 155 -21 173 65 172 -20 hstem
          267 67 vstem
          267 134 -34 callsubr
          endchar
        </CharString>
        <CharString name="plusminus">
          -119 98 65 251 65 172 -20 hstem
          245 67 vstem
          245 241 -34 callsubr
          238 -316 18 callsubr
        </CharString>
        <CharString name="plusminus.tnum">
          -75 98 65 251 65 172 -20 hstem
          267 67 vstem
          267 241 -34 callsubr
          238 -316 18 callsubr
        </CharString>
        <CharString name="q">
          -12 -229 -21 240 72 424 54 hstem
          38 173 219 154 vstem
          295 -226 rmoveto
          -24 376 24 vlineto
          -87 26 rlineto
          728 -28 vlineto
          -82 -34 rlineto
          -6 hlineto
          30 -44 -56 16 -54 hhcurveto
          -165 -111 -114 -183 -150 92 -103 134 64 57 23 45 45 hvcurveto
          -258 vlineto
          -96 686 rmoveto
          56 40 -50 -76 hvcurveto
          -246 vlineto
          -32 -25 -35 -20 -42 hhcurveto
          -75 -42 78 131 143 48 72 75 hvcurveto
          endchar
        </CharString>
        <CharString name="question">
          -254 -10 165 75 231 -136 136 319 -20 hstemhm
          41 175 -122 69 169 52 hintmask 11010110
          163 230 rmoveto
          94 vlineto
          hintmask 10110110
          30 1 rlineto
          121 4 70 74 126 vvcurveto
          156 -102 95 -137 -45 -23 -19 -40 -35 31 -30 96 -36 vhcurveto
          112 -42 16 -16 -31 vvcurveto
          -44 -62 -26 -120 vhcurveto
          -56 hlineto
          hintmask 11010110
          -231 vlineto
          hintmask 11011010
          -53 -158 -103 callgsubr
          endchar
        </CharString>
        <CharString name="questiondown">
          -229 -239 -21 319 136 -136 231 75 165 hstemhm
          33 52 116 175 -122 69 hintmask 10111010
          254 290 rmoveto
          -94 vlineto
          hintmask 11011010
          -30 -1 rlineto
          -121 -4 -70 -74 -126 vvcurveto
          -156 102 -95 137 45 23 19 40 35 -31 30 -96 36 vhcurveto
          -112 42 -16 16 31 vvcurveto
          44 62 26 120 vhcurveto
          56 hlineto
          hintmask 10111010
          231 vlineto
          hintmask 11011100
          53 158 rmoveto
          41 -30 41 -56 -59 -30 -41 -41 -44 34 -39 55 54 32 39 44 vhcurveto
          endchar
        </CharString>
        <CharString name="quotedbl">
          -301 50 callsubr
          47 88 -50 88 28 88 -50 88 hintmask 11101000
          135 505 rmoveto
          hintmask 11011000
          -47 callgsubr
          204 hmoveto
          hintmask 11100100
          -47 callgsubr
          endchar
        </CharString>
        <CharString name="quotedbl.tnum">
          -375 50 callsubr
          10 88 -50 88 28 88 -50 88 hintmask 11101000
          98 505 rmoveto
          hintmask 11011000
          -47 callgsubr
          204 hmoveto
          hintmask 11100100
          -47 callgsubr
          endchar
        </CharString>
        <CharString name="quotedblbase">
          -176 -138 43 callgsubr
          51 69 callgsubr
          48 69 callgsubr
          hintmask 11101000
          315 -159 -61 callgsubr
          hintmask 11100100
          -54 callsubr
          -198 -33 -61 callgsubr
          hintmask 11011000
          -54 callsubr
          endchar
        </CharString>
        <CharString name="quotedblleft">
          -193 527 43 callgsubr
          43 80 -80 174 48 80 -80 174 hintmask 11011000
          175 830 3 callsubr
          hintmask 11100100
          29 callgsubr
          198 33 3 callsubr
          hintmask 11101000
          29 callgsubr
          endchar
        </CharString>
        <CharString name="quotedblright">
          -195 527 43 callgsubr
          45 69 callgsubr
          48 69 callgsubr
          hintmask 11101000
          309 506 -61 callgsubr
          hintmask 11100100
          -54 callsubr
          -198 -33 -61 callgsubr
          hintmask 11011000
          -54 callsubr
          endchar
        </CharString>
        <CharString name="quoteleft">
          -415 527 43 callgsubr
          43 80 -80 174 hintmask 11010000
          175 830 3 callsubr
          hintmask 11100000
          29 callgsubr
          endchar
        </CharString>
        <CharString name="quoteright">
          -417 527 43 callgsubr
          45 69 callgsubr
          hintmask 11100000
          87 506 -61 callgsubr
          hintmask 11010000
          -54 callsubr
          endchar
        </CharString>
        <CharString name="quotesinglbase">
          -398 -138 43 callgsubr
          51 69 callgsubr
          hintmask 11100000
          93 -159 -61 callgsubr
          hintmask 11010000
          -54 callsubr
          endchar
        </CharString>
        <CharString name="quotesingle">
          -455 50 callsubr
          47 88 -50 88 hintmask 11100000
          135 -1 callgsubr
        </CharString>
        <CharString name="quotesingle.tnum">
          -375 50 callsubr
          87 88 -50 88 hintmask 11100000
          175 -1 callgsubr
        </CharString>
        <CharString name="r">
          -181 21 -21 84 callgsubr
          hintmask 11010000
          -85 callsubr
          hintmask 10110000
          -56 callgsubr
          endchar
        </CharString>
        <CharString name="racute">
          40 callsubr
          339 61 callsubr
          hintmask 11011000
          -85 callsubr
          hintmask 10111000
          -56 callgsubr
          -108 596 -101 callsubr
          endchar
        </CharString>
        <CharString name="rcaron">
          40 callsubr
          21 89 229 61 callsubr
          hintmask 11001100
          -85 callsubr
          hintmask 10111100
          -56 callgsubr
          -95 595 -93 callsubr
        </CharString>
        <CharString name="rcommaaccent">
          -181 -4 callgsubr
          52 84 callgsubr
          -97 97 hintmask 11101000
          -85 callsubr
          hintmask 11011000
          -56 callgsubr
          -239 -295 rmoveto
          -80 callsubr
          hintmask 11100100
          -73 callsubr
        </CharString>
        <CharString name="rdotbelow">
          -181 30 callgsubr
          84 callgsubr
          hintmask 11101000
          -85 callsubr
          hintmask 11011000
          -56 callgsubr
          -297 -213 -103 callgsubr
          endchar
        </CharString>
        <CharString name="registered">
          -3 227 42 108 151 102 25 84 41 hstem
          58 48 146 57 72 60 125 48 vstem
          58 504 rmoveto
          -153 125 -124 153 153 125 124 153 153 -125 123 -153 -153 -125 -123 -153 vhcurveto
          48 hmoveto
          129 101 106 129 129 101 -106 -129 -129 -101 -106 -129 -129 -101 106 129 vhcurveto
          126 139 rmoveto
          20 -7 rlineto
          -235 vlineto
          -20 -7 rlineto
          -17 104 17 vlineto
          -27 7 rlineto
          102 24 vlineto
          47 -126 rlineto
          86 17 hlineto
          -27 7 -47 110 rlineto
          31 12 18 22 32 vvcurveto
          50 -44 28 -59 vhcurveto
          -106 hlineto
          77 -25 rmoveto
          47 25 -16 -33 -41 -40 -12 -32 hvcurveto
          endchar
        </CharString>
        <CharString name="ring">
          -489 651 50 66 50 hstem
          10 50 66 50 vstem
          93 651 rmoveto
          -48 callgsubr
        </CharString>
        <CharString name="ring.cap">
          -515 830 140 hstem
          10 140 vstem
          80 830 -51 callsubr
        </CharString>
        <CharString name="s">
          -10 40 callgsubr
          106 135 hintmask 11101000
          -91 callgsubr
          hintmask 11011000
          -79 callsubr
          endchar
        </CharString>
        <CharString name="s_t">
          201 -10 50 -50 72 -72 168 -149 -21 502 40 -40 52 234 53 hstemhm
          51 137 56 105 -55 135 135 155 -126 126 hintmask 0001101101100000
          222 -12 rmoveto
          129 78 66 107 hvcurveto
          189 -241 -24 106 vvcurveto
          35 25 23 39 29 8 -10 -43 8 vhcurveto
          -42 7 24 -23 35 hhcurveto
          40 27 26 37 28 -15 24 -27 19 hvcurveto
          hintmask 1000101110010000
          -26 24 -13 45 53 vvcurveto
          95 46 53 83 74 41 -42 -76 -71 -35 -48 -71 -29 vhcurveto
          6 -30 rlineto
          hintmask 0100101110100000
          -35 callgsubr
          vhcurveto
          hintmask 1000011101100000
          -42 20 -42 35 -22 vhcurveto
          -4 vlineto
          3 -17 -18 1 -18 hhcurveto
          -124 -71 -57 -99 hvcurveto
          -183 243 20 -113 vvcurveto
          -40 -29 -30 -40 -30 -15 16 37 -6 vhcurveto
          hintmask 0010101110100000
          44 -8 -21 21 -37 hhcurveto
          -40 -27 -26 -37 hvcurveto
          hintmask 0001101110100000
          -62 76 -45 105 vhcurveto
          endchar
        </CharString>
        <CharString name="sacute">
          -10 50 450 50 319 -20 hstem
          51 42 201 135 vstem
          -91 callgsubr
          -79 callsubr
          -51 91 -101 callsubr
          endchar
        </CharString>
        <CharString name="scaron">
          -10 50 450 50 0 90 229 -20 68 callgsubr
          106 135 hintmask 11011010
          -91 callgsubr
          hintmask 11010110
          -79 callsubr
          hintmask 10111010
          7 90 -93 callsubr
        </CharString>
        <CharString name="schwa">
          -72 -10 51 147 52 197 103 hstem
          29 162 210 166 vstem
          29 234 rmoveto
          -160 5 81 -84 152 hhcurveto
          178 122 115 168 159 -109 108 -166 -109 -95 -51 -90 -37 hvcurveto
          -5 -12 28 -24 7 8 rlineto
          44 39 66 22 58 hhcurveto
          103 52 -65 -132 2 hvcurveto
          -364 hlineto
          243 -199 rmoveto
          -58 -31 37 69 17 2 15 2 6 hvcurveto
          204 7 rlineto
          -97 -9 -42 -54 -68 hhcurveto
          endchar
        </CharString>
        <CharString name="scircumflex">
          -10 50 450 50 319 -20 68 callgsubr
          106 135 hintmask 11110100
          -91 callgsubr
          hintmask 11101100
          -79 callsubr
          -1 319 -99 callgsubr
        </CharString>
        <CharString name="sdotbelow">
          -13 callgsubr
          85 40 callgsubr
          -46 175 -23 135 hintmask 11110010
          -91 callgsubr
          hintmask 11101010
          -79 callsubr
          hintmask 11110100
          -129 -718 -103 callgsubr
          endchar
        </CharString>
        <CharString name="section">
          -146 85 callsubr
          59 136 142 134 hintmask 10111000
          263 -75 callgsubr
        </CharString>
        <CharString name="section.tnum">
          -75 85 callsubr
          91 136 142 134 hintmask 10111000
          295 -75 callgsubr
        </CharString>
        <CharString name="semicolon">
          -374 -49 callsubr
        </CharString>
        <CharString name="semicolon.tnum">
          -375 -49 callsubr
        </CharString>
        <CharString name="servicemark">
          150 462 35 -18 -21 75 -20 235 22 6 -20 24 -20 hstemhm
          69 82 65 77 54 36 259 82 hintmask 1011001111000000
          347 489 rmoveto
          -36 -8 rlineto
          -19 107 19 vlineto
          -35 8 rlineto
          227 4 vlineto
          hintmask 0111001111000000
          86 callgsubr
          -210 vlineto
          -36 -8 rlineto
          hintmask 1011001111000000
          -19 154 19 vlineto
          -36 8 rlineto
          254 vlineto
          36 8 rlineto
          19 46 callsubr
          -19 hlineto
          36 -8 rlineto
          hintmask 1010011111000000
          -172 37 rmoveto
          -61 -45 -37 -50 hvcurveto
          -96 147 -6 -60 vvcurveto
          -21 -19 -13 -30 -41 -23 23 53 -15 vhcurveto
          -20 -2 7 -103 rlineto
          13 hlineto
          16 17 rlineto
          -15 23 19 -5 25 hhcurveto
          70 52 40 54 hvcurveto
          93 -142 0 67 vvcurveto
          hintmask 1011001111000000
          19 11 10 21 31 23 -22 -38 11 vhcurveto
          20 hlineto
          hintmask 1010101111000000
          -3 88 rlineto
          -13 hlineto
          -13 -21 rlineto
          hintmask 1010011111000000
          18 -19 -19 7 -26 hhcurveto
          endchar
        </CharString>
        <CharString name="seven">
          -148 11 -21 630 137 46 -20 hstem
          148 -40 callsubr
        </CharString>
        <CharString name="seven.denominator">
          -254 14 51 callgsubr
          119 494 -76 callgsubr
          95 223 12 27 101 185 -14 20 rcurveline
          endchar
        </CharString>
        <CharString name="seven.numerator">
          -256 288 51 callgsubr
          117 768 -76 callgsubr
          95 223 12 27 101 185 -14 20 rcurveline
          endchar
        </CharString>
        <CharString name="seven.oldstyle">
          -174 -176 -21 597 120 35 -20 hstem
          140 520 rmoveto
          -4 28 -38 7 -85 -210 40 -19 17 34 12 19 19 21 rlinecurve
          276 hlineto
          -272 -408 rlineto
          -27 -41 -13 -35 -35 vvcurveto
          -49 25 -29 43 40 27 25 58 22 vhcurveto
          124 325 11 23 147 254 -18 32 rcurveline
          endchar
        </CharString>
        <CharString name="seven.tnum">
          -75 11 -21 630 137 46 -20 hstem
          176 -40 callsubr
        </CharString>
        <CharString name="seveneighths">
          411 -7 42 -14 -21 468 41 163 96 2 -20 50 -20 hstemhm
          623 -45 callsubr
          hintmask 0110110110000000
          295 hmoveto
          -70 callsubr
          727 16 callgsubr
          hintmask 1011011001000000
          -82 callsubr
          hintmask 1011010110000000
          -78 callsubr
          hintmask 1011011001000000
          -72 callsubr
          -639 544 -76 callgsubr
          95 223 12 27 101 185 -14 20 rcurveline
          endchar
        </CharString>
        <CharString name="seveninferior">
          -256 -140 51 callgsubr
          117 340 -76 callgsubr
          93 224 13 26 102 185 -14 20 rcurveline
          endchar
        </CharString>
        <CharString name="sevensuperior">
          -256 433 51 callgsubr
          117 913 -76 callgsubr
          93 224 13 26 102 185 -14 20 rcurveline
          endchar
        </CharString>
        <CharString name="six">
          -71 -10 60 347 75 305 -20 hstem
          46 169 195 164 vstem
          308 -55 callsubr
        </CharString>
        <CharString name="six.denominator">
          -7 -26 callsubr
          -7 -89 callgsubr
        </CharString>
        <CharString name="six.numerator">
          267 -26 callsubr
          267 -89 callgsubr
        </CharString>
        <CharString name="six.oldstyle">
          -113 -10 60 317 72 318 -20 hstem
          41 172 152 164 vstem
          287 -10 rmoveto
          143 99 94 135 124 -86 96 -112 -46 -37 -16 -29 -21 hvcurveto
          -4 2 22 136 90 105 161 78 rlinecurve
          -18 42 rlineto
          -272 -85 -165 -187 -222 vvcurveto
          -168 94 -105 152 vhcurveto
          5 60 rmoveto
          -48 -31 64 99 38 5 45 7 27 hvcurveto
          30 15 19 14 24 hhcurveto
          50 32 -64 -102 -94 -28 -57 -45 hvcurveto
          endchar
        </CharString>
        <CharString name="six.tnum">
          -75 -10 60 347 75 305 -20 hstem
          36 169 195 164 vstem
          298 -55 callsubr
        </CharString>
        <CharString name="sixinferior">
          -162 -26 callsubr
          -162 -89 callgsubr
        </CharString>
        <CharString name="sixsuperior">
          412 -26 callsubr
          412 -89 callgsubr
        </CharString>
        <CharString name="slash">
          -297 77 callsubr
          139 39 callsubr
        </CharString>
        <CharString name="slash.tnum">
          -375 77 callsubr
          99 39 callsubr
        </CharString>
        <CharString name="space">
          -422 endchar
        </CharString>
        <CharString name="sterling">
          5 28 callgsubr
          31 65 hintmask 01011101
          221 -77 callsubr
        </CharString>
        <CharString name="sterling.tnum">
          -75 28 callgsubr
          0 65 hintmask 01011101
          190 -77 callsubr
        </CharString>
        <CharString name="t">
          -269 -10 72 418 50 134 -20 hstem
          94 155 vstem
          -74 callsubr
          endchar
        </CharString>
        <CharString name="tbar">
          -267 -10 72 266 55 97 50 134 -20 hstem
          95 155 vstem
          27 328 rmoveto
          68 -196 hlineto
          -54 8 -38 30 -22 vhcurveto
          -18 25 40 -10 40 hhcurveto
          67 58 23 44 35 hvcurveto
          -23 33 rlineto
          -21 -18 -21 -7 -23 hhcurveto
          -24 74 callsubr
          162 124 55 -124 97 22 callsubr
          -97 -68 hlineto
          endchar
        </CharString>
        <CharString name="tcaron">
          -269 -10 72 418 50 327 -20 hstem
          94 155 38 105 vstem
          -74 callsubr
          82 652 -43 callgsubr
        </CharString>
        <CharString name="tdotbelow">
          -269 -13 callgsubr
          85 28 callsubr
          -101 175 hintmask 11111000
          -74 callsubr
          hintmask 11110100
          -89 -168 -103 callgsubr
          endchar
        </CharString>
        <CharString name="thorn">
          -16 -229 -21 240 54 418 78 290 -20 hstem
          79 155 218 169 vstem
          331 44 rmoveto
          -54 -43 48 62 hvcurveto
          250 vlineto
          38 25 34 20 38 hhcurveto
          76 45 -75 -127 -130 -48 -86 -73 hvcurveto
          -2 -54 rmoveto
          177 115 115 177 154 -88 104 -131 -63 -57 -24 -47 -48 hvcurveto
          361 -22 vlineto
          -217 36 callgsubr
          84 -27 rlineto
          -931 56 callsubr
          205 vlineto
          -10 31 29 -5 35 hhcurveto
          endchar
        </CharString>
        <CharString name="three">
          -104 -10 64 -64 212 484 94 hstemhm
          323 156 -115 162 hintmask 10101000
          165 -60 callgsubr
        </CharString>
        <CharString name="three.denominator">
          -230 -7 45 -45 141 106 57 148 64 hstemhm
          244 134 -110 146 hintmask 10110100
          122 237 -92 callgsubr
        </CharString>
        <CharString name="three.numerator">
          -231 264 -17 callsubr
          508 -92 callgsubr
        </CharString>
        <CharString name="three.oldstyle">
          -180 -212 60 -60 117 540 95 hstemhm
          270 158 -127 162 hintmask 10101000
          127 144 rmoveto
          3 15 24 2 13 hhcurveto
          71 51 -66 -92 -87 -45 -56 -70 hvcurveto
          hintmask 01101000
          -70 -10 57 -44 hhcurveto
          -25 -19 -19 -27 -44 52 -27 83 170 140 113 140 95 -64 72 -104 21 hvcurveto
          4 vlineto
          hintmask 10110000
          82 41 51 66 65 vvcurveto
          78 -73 57 -99 -102 -85 -61 -87 -21 vhcurveto
          36 -21 rlineto
          42 21 49 32 44 hhcurveto
          44 28 -32 -52 -72 -55 -63 -99 -40 hvcurveto
          endchar
        </CharString>
        <CharString name="three.tnum">
          -75 -10 64 -64 212 484 94 hstemhm
          344 156 -115 162 hintmask 10101000
          186 -60 callgsubr
        </CharString>
        <CharString name="threeeighths">
          397 -7 42 -14 -21 264 45 -45 141 63 41 2 57 148 64 -10 -20 hstemhm
          259 134 -110 146 184 -45 callsubr
          hintmask 0110110110011000
          341 -12 callsubr
          hintmask 1010111010100100
          -82 callsubr
          hintmask 1010111010011000
          -78 callsubr
          hintmask 1010111001100100
          -72 callsubr
          -633 284 rmoveto
          2 8 20 1 13 hhcurveto
          68 37 -42 -71 -57 -21 -32 -43 hvcurveto
          hintmask 1001111001101000
          -83 callgsubr
          hintmask 1010111010101000
          -92 callsubr
          endchar
        </CharString>
        <CharString name="threeinferior">
          -231 -162 -17 callsubr
          82 -92 callgsubr
        </CharString>
        <CharString name="threequarters">
          363 0 189 -66 66 75 45 -45 141 106 57 148 64 -10 -20 hstemhm
          259 134 -110 110 400 137 hintmask 1010101101000000
          379 hmoveto
          -70 callsubr
          518 42 -29 callsubr
          hintmask 0110110011000000
          -1 callsubr
          -656 152 rmoveto
          2 8 20 1 13 hhcurveto
          68 37 -42 -71 -57 -21 -32 -43 hvcurveto
          hintmask 1001110101000000
          -83 callgsubr
          -92 callsubr
          endchar
        </CharString>
        <CharString name="threesuperior">
          -231 412 -17 callsubr
          656 -92 callgsubr
        </CharString>
        <CharString name="tilde">
          -328 662 110 -88 -21 38 34 callsubr
          hintmask 01101000
          49 663 -50 callgsubr
          hintmask 10001000
          50 19 -39 56 hhcurveto
          68 34 56 -69 callgsubr
          hintmask 01010000
          -50 callsubr
          -51 -94 hvcurveto
          endchar
        </CharString>
        <CharString name="tilde.cap">
          -328 820 -25 callsubr
          hintmask 01101000
          49 821 -50 callgsubr
          hintmask 10001000
          50 19 -39 56 hhcurveto
          68 34 53 -69 callgsubr
          hintmask 01010000
          -50 callsubr
          -48 -94 hvcurveto
          endchar
        </CharString>
        <CharString name="trademark">
          228 479 -21 75 -20 225 32 hstem
          178 87 159 36 259 82 vstem
          424 494 rmoveto
          -36 -8 rlineto
          -24 107 24 vlineto
          -35 8 rlineto
          222 4 vlineto
          86 callgsubr
          -205 vlineto
          -36 -8 rlineto
          -24 154 24 vlineto
          -36 8 rlineto
          243 vlineto
          36 8 rlineto
          25 46 callsubr
          -25 hlineto
          36 -8 rlineto
          -246 -243 rmoveto
          -44 -8 rlineto
          -24 175 24 vlineto
          -44 8 rlineto
          244 49 vlineto
          37 -72 rlineto
          25 hlineto
          -15 104 rlineto
          -280 hlineto
          -15 -104 rlineto
          25 hlineto
          37 72 rlineto
          50 hlineto
          endchar
        </CharString>
        <CharString name="two">
          -78 -12 -21 33 131 553 96 hstem
          367 170 vstem
          419 -45 callgsubr
        </CharString>
        <CharString name="two.denominator">
          -211 -2 -9 callsubr
          hmoveto
          -97 callgsubr
        </CharString>
        <CharString name="two.numerator">
          -211 272 -9 callsubr
          274 rmoveto
          -97 callgsubr
        </CharString>
</ttFont>
